<svg xmlns="http://www.w3.org/2000/svg" viewBox="0 0 512 195.56"><g id="Layer_2" data-name="Layer 2"><g id="Layer_1-2" data-name="Layer 1"><path d="M512,152.54c-1.11,4.82-1.76,9.82-3.43,14.45-6.22,17.25-20.93,27.67-39.59,28.49-1.33.06-2.66.05-4,.05q-209,0-418,0c-17.3,0-31.38-6.07-40.12-21.42-3-5.2-4-11.51-5.86-17.33-.44-1.39-.69-2.85-1-4.27v-10c4.15-13.46,13.29-20.16,27.86-19.84-.73-9.47-1.35-18.55-2.2-27.61a3.73,3.73,0,0,0-2.32-2.51c-5.18-1.26-8.32-4.26-8.47-9.66s3-8.52,8-10c.29-.09.51-.41,1-.81-.51-6-1-12.09-1.58-18.21-1.71-17.3,5.83-32.21,20.15-39.75C48.35,11,53.79,12.1,56.9,17c3,4.75,1.56,10.59-4.19,14-9,5.33-11.6,13.08-10.34,22.92.76,5.94,1.08,11.94,1.65,18.63,6.67,0,13.26.09,19.84-.12.78,0,1.85-1.6,2.22-2.66,4-11.66,12.25-18,24.48-18.75a183.27,183.27,0,0,1,22.48,0c13.3.86,20.86,7.41,25.47,21.59h21.6c.38-9.46,1.3-18.71,1-27.91-.25-6.9-5.08-11.73-11.32-14-9.66-3.5-19.62-6.18-29.46-9.16-1.27-.38-2.63-.42-3.91-.76-6.22-1.66-9.37-6.11-8.31-11.65a9.33,9.33,0,0,1,11.56-7.66,332.12,332.12,0,0,1,32.25,8.42c10,3.16,18.7,8.71,24.1,17.86C197,4.8,224.71.61,253.29.52a129.66,129.66,0,0,1,36.78,5.71c17.81,5.27,23.52,6.47,36,21.5C339.8,9.51,360.4,5.32,380.88,1.79c26.47-4.56,52.06-.2,76.46,10.84,15.46,7,23.87,21.1,23,38.09-.37,7.11-1,14.2-1.53,22,3.09,0,5.72-.19,8.31,0,6.31.56,10.19,4.61,10.07,10.23s-4.2,9.41-10.58,9.65c-3,.11-6,0-9.44,0-.82,10.06-1.62,19.75-2.49,30.28,16.94-1.38,31.82.71,37.33,19.64ZM178.83,143l-1.58-.9c-1.22,1.24-3.14,2.29-3.54,3.75-2.07,7.62-7,12.2-14.24,14.76q-57.73,20.4-115.42-.06c-7.06-2.51-12.3-7-13.83-14.44-.85-4.14-3.38-3.4-5.91-3.21-3,.23-4.35,2-4.24,5,.64,18.89,10.68,27.75,27.37,27.73q208.41-.3,416.81-.12c17.92,0,27.21-9.21,27.69-27.3.09-3.59-1.5-5.34-4.94-5.41-4.48-.09-9,0-13.82,0-1.63,11-8.87,15.93-18.65,19.13-36.21,11.83-72.22,11.77-108.35-.26-8.61-2.87-15.34-7.07-17.51-16.55-.21-.92-1.84-2.29-2.57-2.15a4.22,4.22,0,0,0-2.93,2.41c-1.88,8.44-7.54,12.84-15.29,15.54-36.82,12.8-73.64,13.09-110.71.9C187.56,158.65,180.45,153.77,178.83,143ZM138.68,92.86c-6.55,16.9-13.55,21.66-31.7,21.66-4.67,0-9.34,0-14,0-13.48-.11-22.22-6.32-26.89-19-.37-1-1.13-2.61-1.75-2.63-6.14-.2-12.3-.12-18.72-.12,1.24,15.9,2.26,30.69,3.71,45.44.15,1.58,2.52,3.65,4.29,4.26,32.12,11.12,64.29,11,96.52.21,3.27-1.09,4.41-2.7,4.61-5.93.58-9.14,1.44-18.27,2.14-27.41.42-5.41.77-10.82,1.17-16.48Zm206.26-.19a24,24,0,0,0-.2,3c1.09,14.27,2.11,28.55,3.46,42.79.13,1.41,2,3.33,3.48,3.84q49.13,17,98.29-.09a6,6,0,0,0,3.2-4c.8-5.25,1.1-10.59,1.52-15.9.76-9.71,1.47-19.43,2.22-29.4H437.44c-.27.64-.54,1.23-.75,1.84C432,108.24,423.3,114.45,409,114.51c-5.83,0-11.65.06-17.48,0-13.09-.14-22.08-6.6-26.52-18.78-.43-1.17-1.65-2.88-2.57-2.92C356.63,92.54,350.84,92.67,344.94,92.67Zm-37.38,0c-5.84,0-10.81.17-15.76-.06-3-.14-4.18.89-5.13,3.86a25.68,25.68,0,0,1-24,18c-7.65.27-15.32.28-23,0C228.5,114,219.5,107,215.84,96.33c-.41-1.21-.85-2.41-1.2-3.39H195c1.2,14.9,2.49,29.46,3.45,44.05.23,3.45,1.67,4.7,4.74,5.73,29.93,10,60,10.82,90.28,1.79,9.8-2.92,10-2.82,10.91-12.82C305.58,119,306.48,106.18,307.56,92.64ZM458.68,72.39c.6-8.06,1.32-15.51,1.68-23,.42-9-3.84-15.31-12-18.88q-47.6-20.86-95.27,0C345,34.07,340.57,40.29,341,49.33c.38,7.62,1.14,15.23,1.77,23.31,5.82,0,11.3-.16,16.75.06,3.25.13,4.84-.6,6-4.11,2.66-8.24,8.34-15.1,16.9-16a155.49,155.49,0,0,1,36.59,0c10.2,1.35,15.62,9.93,18.23,19.78Zm-244.07,0c5.63-14.72,12-20.39,25.23-21.3a175.75,175.75,0,0,1,23,0c12.21.76,20.37,7.16,24.32,18.89A4.25,4.25,0,0,0,290,72.51c6.29.23,12.59.12,19.24.12.62-8.08,1.4-15.69,1.75-23.32.42-9-4-15.26-12.1-18.81q-47.62-20.85-95.27.05c-6.29,2.76-11.31,7.29-11.55,14.42-.3,9.06.61,18.16,1,27.43ZM101.86,94.5c3.32,0,6.65.07,10,0,4.44-.11,6.53-2.66,7-6.9,1.08-10.83-.28-15.12-5.22-16.36a4.1,4.1,0,0,0-1-.21c-7.13,0-14.28-.21-21.4.07-4.12.16-6.54,3-6.05,7,.67,5.6-3.29,12.77,4.82,16.11a9.58,9.58,0,0,0,3.45.3C96.22,94.54,99,94.51,101.86,94.5Zm149.32,0c3.32,0,6.64.08,9.95,0,4.32-.14,6.65-2.33,6.94-6.79.8-12.17-.23-15.44-5.47-16.58a2.94,2.94,0,0,0-.49-.08c-7.3,0-14.6-.22-21.88.13-4.62.22-6.11,3.83-5.69,7.82.55,5.34-2.83,12.08,4.73,15.21a9.58,9.58,0,0,0,3.45.31C245.54,94.54,248.36,94.51,251.18,94.5Zm149.58,0c16.77.29,17.15.82,16.76-16.45,0-.17,0-.33,0-.5-.26-4.17-2.58-6.48-6.65-6.58-6.79-.17-13.6-.2-20.4,0-3.73.12-6.78,2.22-6.32,6.16.66,5.78-3.55,13,4.26,16.92a8.19,8.19,0,0,0,3.42.41C394.79,94.55,397.77,94.51,400.76,94.51Z"/><path d="M84.41,1.22A9.67,9.67,0,0,1,94.19,11,9.77,9.77,0,0,1,84,20.94a10,10,0,0,1-9.63-10.11A9.89,9.89,0,0,1,84.41,1.22Z"/></g></g></svg>