<svg xmlns="http://www.w3.org/2000/svg" viewBox="0 0 384 353.51"><g id="Layer_2" data-name="Layer 2"><g id="Layer_1-2" data-name="Layer 1"><path d="M0,119c1.49-7.45,2.6-15,4.54-22.32A106.87,106.87,0,0,1,22.75,60c2-2.71,4.55-4.25,8.05-3.51,3.14.66,5.54,2.68,5.64,5.71a13.17,13.17,0,0,1-2.34,7.5A100.56,100.56,0,0,0,16.28,112.5a96.17,96.17,0,0,0,3.83,46.95Q46.89,237.9,73.89,316.29c4.85,14.11,17.21,22.86,30.88,22.18,14.87-.73,26-10,29.65-25.14,6.5-26.68,12.86-53.38,19.28-80.07,2.5-10.44,9.6-16.61,19.26-16.69,9.81-.09,17.14,6.11,19.67,16.69q9.5,39.69,19,79.38c3.15,13.24,11,22.19,24.38,25.05,12.74,2.72,23.47-1.5,31.46-11.83a33,33,0,0,0,4.8-9.25q27-78.36,53.9-156.8c.72-2.11,1.27-4.29,2-6.71-1.2-.46-2.21-.86-3.23-1.22-21.83-7.79-36.32-22.72-43.31-44.8-.72-2.27-1.65-3.56-3.91-4.38a50.84,50.84,0,0,1-29.18-68.76c.45-1,.87-2,1.41-3.29-22-3.91-42.73-.68-63,9.19,3.05,2.9,6.18,5.36,8.61,8.37,1.51,1.87,2.94,4.72,2.64,6.88s-2.43,4.61-4.43,5.83c-2.6,1.58-5.54.63-7.94-1.45-4.81-4.17-9.35-8.74-14.57-12.33C146,29.78,118.46,25,88.77,32.33c-.85.21-1.69.45-2.54.64-4.45,1-8.15-1.14-9.3-5.32a7.18,7.18,0,0,1,5.28-9,146,146,0,0,1,18.69-3.81,111.75,111.75,0,0,1,69.95,14.27c2.06,1.17,3.38.61,5.08-.34C200.23,15.34,226,11,253.38,16.09c11.16,2.09,15.51,11.2,10.17,21.29-10.89,20.58-1,45,20.89,51.85a35,35,0,0,0,3.61,1c3.8.75,5.76,3.21,6.52,6.84,4.52,21.57,17.43,35.34,38.52,41.6,8.12,2.42,12.2,9.3,9.6,17.48-5.74,18.07-11.86,36-18,54q-19.05,55.8-38.28,111.52c-6.66,19.24-23.33,31.39-43.27,31.89-18.44.47-36.26-10.73-43.06-28.19-3.32-8.55-5.06-17.73-7.25-26.69-4.94-20.25-9.71-40.53-14.55-60.8-.15-.61-.37-1.2-.49-1.81-.49-2.65-1.9-4.4-4.74-4.38s-4,1.93-4.66,4.5c-2.34,10-4.77,19.9-7.15,29.85-4.07,17-8,34-12.2,51-5.32,21.68-22.27,35.62-44.21,36.53-19.93.83-38.15-12.09-45.15-32.36-17.94-52-35.89-104-53.5-156.15C3.46,156.87,2.46,148.2.65,139.81c-.16-.71-.43-1.39-.65-2.09Z"/><path d="M384,99.47c-2.14,4.4-5.63,5.89-10.41,5.23-5.17-.71-10.4-1-15.59-1.64-5.46-.62-8.58-3.84-8.16-8.28s3.9-7.09,9.43-6.64c5.83.48,11.64,1.17,17.47,1.68,3.48.3,5.45,2.57,7.26,5.15Z"/><path d="M378.61,27.75c-1.79,2.67-2.75,5.08-4.5,6.55-9.67,8.08-19.49,16-29.33,23.86-3.89,3.11-8.18,2.77-11-.6s-2.26-7.82,1.47-10.9c9.83-8.08,19.76-16,29.64-24.08,2.56-2.07,5.56-2.94,8.28-1.1C375.25,22.86,376.58,25.31,378.61,27.75Z"/><path d="M311.05,7.68c-.74,7-1.33,13.38-2.08,19.71A7.46,7.46,0,1,1,294.1,26.1c.5-6.47,1.25-12.93,2.08-19.37a7.28,7.28,0,0,1,8-6.69A7.44,7.44,0,0,1,311.05,7.68Z"/><path d="M53.87,47.82a7.24,7.24,0,0,1-7.55-7.14,7.46,7.46,0,0,1,7.41-7.76,7.59,7.59,0,0,1,7.44,7.43A7.4,7.4,0,0,1,53.87,47.82Z"/></g></g></svg>