<svg id="Layer_1" data-name="Layer 1" xmlns="http://www.w3.org/2000/svg" viewBox="0 0 512 400.96"><path d="M652,237c-2.44,3.27-5,6.48-7.27,9.86a8.66,8.66,0,0,0-1.23,4.07c-.25,3.15-.06,6.34-.33,9.48-1.13,13.64-11.27,23.2-25,23.68a13.37,13.37,0,0,1-2,0c-5.31-.65-9,.48-11.86,6-3.63,7-10.64,10.54-18.6,10.84-9.47.36-19,.34-28.46,0-3.89-.14-7.73-1.58-12.11-2.55-6.65,9.94-17.08,11.95-28.59,11.52-10.14-.38-20.42.43-30.38-1-6.26-.93-10.66-1.29-15.29,3.9-4.12,4.61-10.46,5.48-16.63,5.47-13.32,0-26.65-.06-40,0a27.7,27.7,0,0,1-18.4-6.64c-7.13,6.88-16.13,6.77-25.2,6.65-10.32-.13-20.65-.16-31,0-9.33.16-17.37-2.31-23.47-9.83a4.79,4.79,0,0,0-3.74-1.13c-6.22.71-12.38,2.06-18.61,2.44-7.13.44-14.32,0-21.48.13-10.41.2-19.39-2.63-25.76-11.85-12.66,5.32-25.9,2.71-38.91,2.94-9.78.18-17.26-4.7-21.77-13.37-1.51-2.89-3.19-3.69-6.19-3.59a47.57,47.57,0,0,1-10.94-.52c-11.29-2.29-19.17-11.42-20-23.13-.49-6.82.66-14-6.23-18.75-1.31-.91-1.77-3.07-2.62-4.66V160c4.57-10.67,13.08-17.11,23.12-22.19,16.49-8.35,34.14-13.05,52-16.84,44.62-9.43,89.93-12.94,135.37-14.89,66.72-2.85,133.19.14,199.29,10,24.38,3.63,48.53,8.51,71.38,18.16,12.81,5.41,25,11.88,30.79,25.79ZM316.45,210C333.67,182.23,376,184.4,396,212.44c20-28.08,62.38-30.15,79.4-2.71,19.31-20.53,52.4-21.81,68.31,1.13,26.93-18.48,42.84-17.65,60.37,2.61,5.45-1.29,10.54-3.46,15.62-3.44s10.06,2.23,15.27,3.52c0-13.23-.65-27.07.22-40.82.61-9.66-3.65-14.8-11.56-18.68-16-7.85-33-12.34-50.26-16.06C522.84,127.1,471.54,123.42,420,122.28a1044.28,1044.28,0,0,0-140.23,5.86c-28.8,3.25-57.49,7.53-85.24,16.11-10.87,3.36-21.22,8.52-31.61,13.28-4.41,2-6.09,6-6,11.13.25,13.83.08,27.67.1,41.51,0,1.38.17,2.77.27,4.34,11.85-6.31,15.41-6.34,30.07-.43,18.33-20.82,34.09-21.66,60.88-3.22C266.06,186.12,299.26,191.19,316.45,210Zm11.39,50.8c0,10.15-.07,20.31,0,30.46.07,6.81,3,9.85,9.69,9.9q20,.15,39.95,0c6.56,0,9.8-2.9,9.84-9.27.11-17.47.38-35-.3-52.42-.59-15.44-10.38-26.92-25.34-30.83C340,203,326.89,218.2,327.75,233.81,328.24,242.77,327.84,251.78,327.84,260.78Zm136.32.44h-.11c0-10.33.21-20.65-.05-31-.29-10.91-8.75-20.37-19.43-22.3-19.45-3.53-38.62,10.83-39.52,30.57-.82,17.78-.48,35.61-.39,53.42,0,6.34,3.32,9.17,9.9,9.21q19.72.12,39.45,0c7.27,0,10.09-3,10.14-10.47C464.21,280.86,464.16,271,464.16,261.22Zm-204.71-4c0,8.15-.08,16.31,0,24.46s3.15,11.12,11.22,11.18c9.48.07,19,.05,28.45,0,8.38,0,11.53-3.09,11.58-11.36q.11-19.47,0-38.94c0-7.87-2.06-15.06-7.36-21.18-7.39-8.54-20.54-12.46-30.29-8.82-9.35,3.49-13.59,11-13.61,24.19Q259.42,247,259.45,257.19Zm273.1-.13h-.06q0-12.23,0-24.46c0-1-.13-2-.24-3A20.32,20.32,0,0,0,516.91,212c-15.81-4-33.66,7.78-34.85,24.26-1.13,15.73-.76,31.58-.66,47.38,0,6.3,3.71,9.16,10.59,9.23,9.82.1,19.64.08,29.45,0,8-.06,11-3.13,11.1-11.31S532.55,265.22,532.55,257.06Zm-332.67-4.52h0c0,7.32-.08,14.64,0,22,.1,6.43,3.13,9.5,9.48,9.6q11.72.18,23.44,0c6.16-.09,9.39-3,9.46-9.12.16-12.14.34-24.29-.13-36.41-.53-13.83-11.42-23.65-25.25-23.54-9.55.07-16.74,7-17,16.57C199.74,238.57,199.88,245.56,199.88,252.54Zm392.29.51V232.6c0-.5,0-1,0-1.5a16.73,16.73,0,0,0-15.48-16c-14-1.07-26.11,9-26.71,23-.52,12.29-.33,24.61-.18,36.91.07,6.08,3.29,9,9.45,9.13q11.71.18,23.44,0c6.36-.1,9.38-3.16,9.49-9.59C592.25,267.35,592.16,260.2,592.17,253.05Zm-409.81,14c0-10.24.12-19.83-.1-29.42a11.21,11.21,0,0,0-2.19-5.94c-2.34-3.19-5.95-6.16-9.64-4.28-2.39,1.22-4.27,5.41-4.53,8.42a196.88,196.88,0,0,0-.14,22.4c.17,5.57,3.29,8.51,8.76,8.8C177,267.16,179.48,267.05,182.36,267.05Zm427.46,0c1.94,0,3.88,0,5.83,0,7.62-.08,10.57-2.9,10.66-10.49.08-7.15.35-14.32-.24-21.42-.23-2.75-2.13-7-4.13-7.56-2.48-.72-6.17,1.18-8.73,2.87a8.37,8.37,0,0,0-3.24,5.84C609.64,246.38,609.82,256.46,609.82,267.08Z" transform="translate(-140 -105.04)"/><path d="M201.19,330.62c15.9-11.7,38.05-13.45,52.14-3,5.48,4,9.55,4.68,16.17,3.52,9.87-1.72,20.28-1.47,30.34-.62S317.29,337.36,323,346c11.22-9.48,24.5-7.47,37.38-7.78,13.08-.31,25.78.32,35.56,11.52,9.56-10.83,21.84-11.93,34.62-11.51,4.5.15,9,.06,13.5,0,8.88-.08,17.23,1.57,24.25,7.26.49-.13.95-.11,1.09-.31,8.13-11.52,19.36-16.13,33.24-15.37,9.1.5,18.36-1,27.1,3,.85.38,2.57-.29,3.46-1,17.51-14.11,39.12-14.7,56.53-2,5.65-2.15,10.67-5,16-5.9,15.55-2.5,28.29,8.36,29.11,24.09.15,3,.14,6,0,9-.2,5.75-.27,10.93,4.79,15.62,2.65,2.45,3.47,7.85,3.54,11.95.35,20.16-.07,40.34.25,60.51.2,13-7.35,20.5-17.43,26.38C607,482.66,585.78,488,564.3,491.89c-74.47,13.53-149.56,16.43-225,12.5-33.63-1.75-67.14-4.61-100.34-10.34-20.68-3.57-41.28-7.79-60.56-16.37a118.21,118.21,0,0,1-21.26-12.79c-6.08-4.43-8.63-11.12-8.59-18.82.12-20.5.06-41,0-61.51,0-6.31,1.65-11.74,6.93-15.8,1-.79,1.49-2.8,1.55-4.27.17-4.66,0-9.34,0-14-.05-10.93,4.14-19.64,14.23-24.4,9.84-4.65,19.41-3.52,28.08,3.36A20.47,20.47,0,0,0,201.19,330.62ZM165.63,383.9c0,20.74.12,40.56-.08,60.37-.05,5.11,1.6,9,6.09,11,10,4.45,19.88,9.5,30.33,12.51,46.87,13.5,95.13,18.48,143.62,19.89,38.27,1.12,76.63.45,114.91-.79a573.65,573.65,0,0,0,118.61-16c14.21-3.51,28.32-7.5,41-15.3,4.34-2.67,6.41-6.12,6.34-11.48-.26-18.33-.1-36.67-.12-55,0-1.4-.19-2.8-.36-5-7.94,6.28-16.15,6.05-25,3.28-.86,13.3-6.08,23.82-17.86,30.12s-23.73,4.68-35.78.37c-5.73,13.65-15.49,22.1-29.91,23.9A47.46,47.46,0,0,1,480,431c-3.1,9-8.48,15.32-16.54,18.57-15.05,6.08-30.42,6.78-45.73.66-8.86-3.54-15.73-9.72-21.3-17-.57.08-.79.05-.88.14-.57.61-1.13,1.22-1.65,1.86-12.28,15.27-28.54,20.53-47.51,18.76-15.46-1.44-28.56-6.65-34.51-23-11.27,9.47-24,12.56-37.78,10.76-14.4-1.89-24-10.62-29.53-23.9-12.22,4.47-24.08,5.85-35.67-.33-11.8-6.28-17-16.82-17.9-30C181.89,390.43,173.58,390.12,165.63,383.9ZM464.15,397h0c0-7.82.05-15.64,0-23.46-.1-11.59-6.24-17.88-17.83-18.11q-12-.22-24,0c-11.39.22-17.62,6.39-17.79,17.66-.16,10.15-.06,20.3,0,30.45a34,34,0,0,0,6.48,20.53c10.62,14.53,29.73,15.7,44.3,10.45,5.94-2.14,8.87-6.63,8.8-13.07C464.09,413.28,464.15,405.12,464.15,397Zm-76.35-7.61-.6,0c0-6.49.33-13-.09-19.47-.49-7.47-5.87-13.49-13.31-13.92a273.62,273.62,0,0,0-32.4,0c-7.81.48-13.35,7-13.44,14.89-.2,17.15,0,34.31,0,51.47,0,5.64,2.66,10.07,7.84,11.54a72.8,72.8,0,0,0,19.49,3.08c15.38,0,28.11-10.21,31.16-25.21C387.88,404.48,387.4,396.83,387.8,389.36Zm-77.55-8.93h.56c0-5.66.2-11.34-.05-17-.45-10-7-16.3-17-16.46-6-.1-12-.14-18,0-9,.22-15.78,6.11-16,15.15-.41,15-.34,30,.14,44.95.27,8.44,6.27,14.84,14.43,17.15,16.41,4.64,33.71-6.39,35.8-23.36C310.94,394.15,310.25,387.25,310.25,380.43Zm222.06,4.05h.24q0-10,0-20c0-.5,0-1-.06-1.49-.76-9.84-7-15.86-16.87-16-5.65-.1-11.31-.09-17,0-10.56.15-17.1,6.46-17.32,17.13s-.33,21.32,0,32c.57,17.91,12.73,29.22,30.63,29,11.1-.15,19.51-7.58,20.24-18.6C532.7,399.15,532.31,391.8,532.31,384.48ZM208.2,371.58h0c0,5.49-.17,11,0,16.46.29,7.91,5,15,12,15.68,5.87.56,12-.83,17.93-2,3.14-.63,4.4-3.28,4.3-6.87-.28-9.64-.48-19.31.05-28.93A52.65,52.65,0,0,1,246,349.06c1.75-4.25.76-6.9-2.64-7.81A71.8,71.8,0,0,0,225,338.48c-10.3,0-16.5,6.8-16.77,17.14C208.09,360.94,208.2,366.26,208.2,371.58Zm375.6-.15h0c0-5.17.44-10.38-.15-15.48-.44-3.82-1.41-8.06-3.56-11.12-5.85-8.35-26.62-9.36-33.62-1.94-.91,1-1.11,3.14-.84,4.61,1.17,6.3,3.39,12.51,3.83,18.84.66,9.62.12,19.32.23,29,0,1.54.23,3.75,1.22,4.5a23.07,23.07,0,0,0,22.22,3.54c7-2.39,10.34-8.12,10.6-15.44C584,382.43,583.8,376.93,583.8,371.43ZM174.12,356h0c0,2.49-.6,5.18.15,7.42,1,3,2.74,7.72,4.81,8.1,2.83.51,6.67-1.88,9.3-4,1.62-1.3,2.28-4.35,2.53-6.71a84.76,84.76,0,0,0,.17-11.93c-.17-5.07-3.23-8.16-8-8.38-4.94-.22-8.46,2.85-8.92,8C173.94,351,174.12,353.53,174.12,356Zm444.17.79-.59,0c0-3.14.35-6.34-.08-9.42-.57-4.1-3.33-6.4-7.47-6.74-3.8-.3-8,1-8.3,4.69a94.5,94.5,0,0,0,1,20.9c.28,1.94,3.41,3.91,5.64,5,4.16,2.11,7.2.82,8.43-3.66C617.88,364.12,617.88,360.4,618.29,356.8Z" transform="translate(-140 -105.04)"/></svg>