<svg id="Layer_1" data-name="Layer 1" xmlns="http://www.w3.org/2000/svg" viewBox="0 0 377.44 379.76"><path d="M503.7,286.17c-.63-3.28-1-6.37-1.84-9.31-2.17-7.41-3.89-15.06-7.06-22-3.94-8.68-3.92-16.76.06-25.2a49.34,49.34,0,0,1,18.49-21.14c5.65-3.58,6.24-5.56,2.59-11.26-3.43-5.36-7-10.64-11-15.63-6.19-7.87-7.12-16.48-4.75-25.85,1-3.86,1.72-7.79,2.52-11.7a48.41,48.41,0,0,0-.49-22.64c-.77-2.86,0-5.12,2.94-5.93,3.08-.85,4.89.73,5.77,3.77,3.45,12,1.54,23.77-1.17,35.53-.25,1.1-.57,2.18-.84,3.26-1.7,6.64-1.1,12.68,3.35,18.37a183.44,183.44,0,0,1,12.28,17.9c5,8.29,2.86,16.11-5.4,21.14A40.65,40.65,0,0,0,502.37,235c-2.23,5.33-1.88,10.25.4,15.52,6.46,14.9,11,30.34,10.23,46.78a158.75,158.75,0,0,1-8.68,46.24c-5.22,14.63-6.06,29.19-1.19,44a75.25,75.25,0,0,1,2.59,10.91c1.33,7.89-1.69,14.19-8.63,18.36a32,32,0,0,1-17.54,4.49c-16.58-.36-32.28-5-47.85-10.05-24-7.78-47.84-15.88-71.79-23.71-5.45-1.79-11.14-2.83-16.58-4.63-19.4-6.39-31.28-20.28-38.12-39-7.29-19.91-14.2-40-21.85-59.74-3.68-9.52-8.65-18.53-13.06-27.77-4-8.46-6.73-17.22-5.7-26.74s6.25-15.73,14.92-18.12c9.33-2.57,18.29-.21,23.35,7.44,3.3,5,5.17,11,7.48,16.59,1.22,3,1.93,6.18,3,9.25,1,2.79,3.15,3.5,5.27,1.76a30.07,30.07,0,0,0,6.75-7.32c3.22-5.32,5.72-11.09,8.78-16.52a51,51,0,0,1,5.82-8.23c5.39-6.19,12.3-8.25,20.31-6.73,9.84,1.87,15.48,7.69,15.38,17.79-.11,9.82-1.56,19.63-2.43,29.44-.1,1.12-.34,2.22-.47,3.34-1.1,9.61-1.2,10.16,8.42,11.92,20.25,3.72,40.55,7.28,61,10,19.31,2.56,38.77,4,58.17,5.86C501.25,286.25,502.23,286.17,503.7,286.17Zm-9.17,58.18c-2.91-.43-5.64-.68-8.29-1.26q-28.33-6.29-56.64-12.69c-11.43-2.58-23-4.7-34.22-8-17.43-5.2-27.82-17.23-31.52-35.15-2.27-11-1-21.87.28-32.8q1.65-14.11,2.64-28.31c.22-3.14-.79-6.23-3.91-8-5.62-3.18-12.58-2.2-16.63,2.86a79.24,79.24,0,0,0-6.52,10.45c-3,5.3-5.49,11-9,16A25.24,25.24,0,0,1,321.8,255c-7,3.56-13.12,1.16-16.34-6-1.68-3.73-2.5-7.84-4-11.67-1.64-4.29-3.12-8.74-5.49-12.62-2.88-4.71-7.84-6-13.55-4.51-5.55,1.43-8.16,4.3-8.86,10.19-.94,8,1.67,15.21,4.88,22.37,7.7,17.19,15.59,34.31,22.64,51.76C306.33,317.44,310,331,315,344c6.52,16.84,18.72,27.36,36.47,32,15.2,3.95,30.14,8.95,45.11,13.73,18.18,5.81,36.19,12.18,54.45,17.73,11,3.34,22.28,5.89,34,4.32,10-1.34,13.44-6.69,11-16.4-1.67-6.65-3.55-13.28-4.59-20C489.81,365,491.37,354.69,494.53,344.35ZM430.7,301.06l20.09,3.14c.65-4.73,1.22-9,1.84-13.54l-20.58-2.35C431.59,292.72,431.17,296.65,430.7,301.06ZM484.27,318,481,333.19c5.05.7,9.83,1.44,14.63,1.94a3,3,0,0,0,2.31-1.6c1.22-4.41,2.2-8.89,3.33-13.65ZM461.7,291.6c-.71,4.93-1.33,9.31-2,14L477,307.91c.83-5,1.58-9.63,2.38-14.51Zm41.11,19.31c.5-5.48.94-10.38,1.39-15.43l-15.73-1.28L486,309.11Zm-79.68-23.82L402.55,284c-.2,4.24-.38,8-.56,11.86l19.78,3.64C422.24,295.21,422.66,291.42,423.13,287.09Zm-29.47-4.62-22.18-5.19c.63,3.71,1.1,7,1.83,10.21a3.21,3.21,0,0,0,2,1.87c5.73,1.64,11.5,3.14,17.57,4.76C393.14,290,393.4,286.33,393.66,282.47Zm81.6,34.35L458,314.53c-.85,4.35-1.61,8.21-2.45,12.5l16.64,4C473.23,326.22,474.19,321.79,475.26,316.82Zm-47.06,3.95,18.57,4.05c.78-4.09,1.49-7.79,2.25-11.74l-19.42-3Zm-7.49-12.3-19.61-3.58c0,3.07-.14,5.55.07,8,.08.87.83,2.23,1.53,2.42,5.35,1.47,10.76,2.7,16.49,4.09C419.74,315.45,420.19,312.16,420.71,308.47ZM392.2,303l-14.15-3.3c4,5.61,8.29,9.21,14.15,11.73Z" transform="translate(-208.28 -115.24)"/><path d="M543.46,314.49C549.58,325,548.2,335,542,344.64a39.26,39.26,0,0,1-5.26,6.81c-5.22,5.13-6.24,11.13-4.43,17.92,1.86,7,4.26,13.9,5.43,21,4.08,24.94-7.83,44.4-32,52.8a85.41,85.41,0,0,1-41.42,3.41c-8.87-1.34-17.52-1.72-25,4.41a18,18,0,0,0-4.78,5.15c-3.79,7.29-7.74,14.57-10.68,22.21C419.41,490,413,495,400.6,495q-78.41,0-156.79-.06a31.32,31.32,0,0,1-9.93-1.41c-10.92-3.71-16.19-14.49-13-25.93,3.73-13.47,7.67-26.88,11.17-40.41,3.68-14.28,6.84-28.68,7.25-43.51.07-2.5.06-5-.11-7.5-.54-7.75-3.25-14.22-10.38-18.39-5.81-3.41-11.39-7.22-17.06-10.88-3.34-2.14-4.27-4.6-2.73-7.06s4.18-2.64,7.53-.53c5.18,3.25,10.17,6.85,15.52,9.81,11.63,6.42,15.76,16.78,16.16,29.3.48,14.75-2.08,29.15-5.61,43.35-3.92,15.74-8.39,31.34-12.72,47C227,479.15,232.08,486,242.94,486H401.23c7.55,0,10.87-2.77,13.78-9.69,3.48-8.26,7-16.59,11.6-24.25,6.95-11.59,18-16,31.28-15.14,7.72.5,15.43,1.56,23.16,1.63a61.65,61.65,0,0,0,24.46-4.91c19.1-8,27.45-24,22.87-44.15-1.44-6.32-3.39-12.53-5-18.81-2.45-9.45-.34-17.66,6.35-24.93a42.3,42.3,0,0,0,7-10.5c3.18-6.76,1.89-13.15-3.16-18.71-4.08-4.49-3.26-7,2.46-9.14a26.88,26.88,0,0,0,16.43-15.94c2.8-7.18-.27-12.88-5.52-17.71-4.36-4-5.4-7.56-2-12.38a41.81,41.81,0,0,1,10.37-10c4.28-2.91,9.29-4.78,14-7,7.72-3.54,9.27-8.45,4.46-15.53-1.73-2.56-4.09-4.71-6.12-7.07-12.23-14.2-24.59-28.29-36.63-42.65-6.7-8-8-17.31-4.58-27.14s5.16-20,4-30.57c-.43-3.7,1.1-5.82,3.93-6.08s4.59,1.5,5,5.18A70.05,70.05,0,0,1,535.58,153c-3.05,8.31-2,15.61,3.84,22.3,12.41,14.21,24.87,28.38,37.05,42.78a47.9,47.9,0,0,1,8.1,12.81c2.83,7.12.27,14-6,18.46-2.52,1.78-5.57,2.77-8.24,4.34-5.24,3.08-10.45,6.22-15.54,9.54-2,1.31-2.22,3.27-.37,5.07,13.46,13.17,8.36,29.17-2.48,39.6C549.45,310.26,546.48,312.16,543.46,314.49Z" transform="translate(-208.28 -115.24)"/><path d="M212.43,276.09a23.84,23.84,0,0,1,3.46,1.64c17.78,12.75,37.74,20.69,58.59,26.71.72.21,1.43.44,2.15.66,3.75,1.16,5.48,3.39,4.42,6-1.26,3.2-3.76,3.58-6.79,2.6-5.81-1.87-11.72-3.47-17.48-5.49-15.84-5.53-31-12.52-44.74-22.25-1-.72-2.41-1.39-2.79-2.39a7.34,7.34,0,0,1-.34-4.84C209.39,277.59,211.23,276.94,212.43,276.09Z" transform="translate(-208.28 -115.24)"/></svg>