<svg id="Layer_1" data-name="Layer 1" xmlns="http://www.w3.org/2000/svg" viewBox="0 0 384 382.83"><path d="M204,348c2.35-1.66,4.48-4.09,7.1-4.87,19.24-5.75,38.58-11.17,57.9-16.69a43.74,43.74,0,0,1,24.34-.29c-2.93-9.91-6.3-19.56-8.59-29.47-3.44-14.9-5.37-30.05-2.82-45.34C287.82,216,326,193.6,359.66,206.05c13.75,5.08,27.58,9.23,42.33,7.54,8.73-1,17.32-3.27,26.71-5.11,1.18,2.77,2.77,6.48,4.48,10.5a81.3,81.3,0,0,1-23,6.67,92.62,92.62,0,0,1-49.25-5.71c-13.74-5.62-27.49-6.56-40.94.31-17.69,9-26.39,23.82-26.26,43.65.17,24.18,5.82,47.17,17.63,68.19,6.8,12.1,8.93,24.88,10.3,38.22,2.62,25.34,5.57,50.66,8.34,76,.8,7.39,5.22,12.11,11.68,12.29s11.15-4.32,12.25-11.71q6.8-45.39,13.58-90.77c2.25-15.05,13.77-25.24,28.71-25.37,14-.13,26,10.4,28.27,25,4.61,30.25,9.08,60.51,13.59,90.77,1.11,7.46,5.56,12,12,12,6.09.07,11.06-4.32,11.81-10.84,2.6-22.83,5.08-45.68,7.6-68.53,1.06-9.56,2-19.13,3.21-28.67a21.41,21.41,0,0,1,2.35-6.65c7.42-14.71,14.94-29.36,18.81-45.56,3.15-13.19,5-26.49,4.2-40.09-.05-1,0-2,0-3.37l12.34-2a112,112,0,0,1-1.93,37.51c-2.66,12-6.23,23.77-9.41,35.66,13.11-4.46,25.8,1,38.7,4.61,14.41,4.05,28.84,8.05,43.16,12.41,2.61.8,4.73,3.21,7.08,4.88V492.75c-2.12,3.45-5.28,4.42-9.19,4.42q-182.8-.07-365.62,0c-3.91,0-7.07-1-9.19-4.42Zm371,6.95a6.61,6.61,0,0,0-1.26-.68c-18.59-5.32-37.15-10.76-55.8-15.89-9.35-2.58-18.27-1-25.63,5.49-2.94,2.6-6.08,6.2-6.81,9.82-1.81,8.9-2.28,18.08-3.29,27.14-2.53,22.84-4.95,45.7-7.65,68.52-1.09,9.2-5.93,16.12-14.53,19.94-14,6.23-32.06-1.45-34.83-21.52-4.17-30.18-8.91-60.28-13.47-90.4-1.25-8.25-7.69-13.83-15.66-13.86s-14.46,5.51-15.8,13.73c-1.62,10-3,20-4.54,30-3.19,21.11-6.14,42.26-9.64,63.32-2.2,13.19-12.36,21.14-25.31,20.79-12.1-.33-22-9.67-23.45-22.62-3.4-29.91-6.6-59.85-10-89.76-.36-3.14-.79-6.62-2.38-9.21-5.87-9.58-17.66-14.65-28.57-11.8-18.71,4.89-37.23,10.47-55.88,15.57-2.95.81-3.84,2-3.84,5.07.13,40.5.09,81,.09,121.5v4H575Z" transform="translate(-204 -114.34)"/><path d="M450.43,234.37l16.28,16.24L576.85,140.45l9.28,10.07a21.52,21.52,0,0,0-3.32,2.37q-54,53.93-107.89,108a17.41,17.41,0,0,0-4,6.5c-7.79,22.92-15.41,45.91-23.09,68.87a21.7,21.7,0,0,1-1.35,3.47c-2.14,4-6.17,4.83-9.77,2.09a28.74,28.74,0,0,1-2.73-2.57l-72.12-72.13c-.45-.44-.9-.87-1.33-1.33-4.63-4.91-3.5-9.88,2.9-12.08,9.68-3.32,19.41-6.49,29.12-9.72,13.73-4.57,27.49-9.07,41.18-13.78a16.91,16.91,0,0,0,6.22-3.8q54.19-54,108.2-108.18a22.06,22.06,0,0,0,2.52-3.85l9.71,10.1Zm-4.32,42.22L423.88,310l14.22,14.2a1.6,1.6,0,0,0,.42-.6c6.63-19.88,13.27-39.76,19.76-59.69a4.55,4.55,0,0,0-1.09-3.72c-5.19-5.41-10.65-10.56-15.8-16-1.76-1.85-3.25-2-5.55-1.25-18.78,6.36-37.61,12.58-56.42,18.86-1,.34-2,.82-2.8,1.18l14.3,14.24,33.53-22.32,7.08,10.64-31.08,20.75,14.32,14.24,20.7-31Z" transform="translate(-204 -114.34)"/><path d="M460.56,177.75c-.34,3.66-.53,7.13-1.09,10.54a3.14,3.14,0,0,1-2.48,1.78C443.81,189,431.6,192.5,419.42,197a65.36,65.36,0,0,1-47.26-.19c-13-5-26.13-8-40.21-6.48-34,3.72-61.64,32.51-63.61,66.68-.87,15.08,1,29.91,4.29,44.59.46,2.06,1.38,4.45.74,6.2-.76,2.07-2.66,4.63-4.6,5.21-19.83,6-39.76,11.53-60.12,17.35-1.19-4.08-2.33-8-3.58-12.25l54.4-15.58c-.9-5.53-2-10.88-2.61-16.28-1.8-14.92-3-29.89,1-44.66,9-32.69,30-53.45,62.66-62.11,16.63-4.41,33.25-3.17,49.31,3,9.66,3.71,19.44,7.08,29.83,5.59a129.71,129.71,0,0,0,22.36-5.67c11.76-3.92,23.67-6,36.06-4.95C458.83,177.5,459.55,177.62,460.56,177.75Z" transform="translate(-204 -114.34)"/><path d="M517.11,231l11.25-5.4c12.23,25.05,8.77,50.72,4.15,76.93l54.39,15.62c-1.2,4.2-2.32,8.08-3.51,12.26l-29.09-8.29c-9.95-2.84-19.91-5.65-29.84-8.55-5.28-1.54-6.46-4-5.65-9.51,1.79-11.95,3.63-23.9,4.85-35.91A68.74,68.74,0,0,0,518,233.39C517.68,232.73,517.48,232,517.11,231Z" transform="translate(-204 -114.34)"/><path d="M287.1,170.08c.09,3.72-1.88,5.95-6.33,7.06-7.15,1.79-12.75,5.65-16.3,12.13a42.61,42.61,0,0,0-2.83,7.67c-1,3.11-2.62,5.44-6.19,5.52s-5.75-2-6.57-5.44c-2.59-10.91-9.28-17.61-20.24-20.1-3.26-.74-5.26-2.76-5.23-6.34s2.1-5.55,5.31-6.29c11-2.51,17.63-9.25,20.17-20.16.77-3.3,2.77-5.32,6.25-5.37s5.62,2.07,6.36,5.27c2.56,11.13,9.34,17.83,20.46,20.33A6.2,6.2,0,0,1,287.1,170.08Zm-24.36.74-7.19-8-7.89,7.52,7.44,8Z" transform="translate(-204 -114.34)"/><path d="M306.64,285.49c-1.61-20.55,4.47-37.38,21.82-49.76l7.07,10.62c-6.33,4.47-11.54,9.91-13.58,17.16-2,7-2.53,14.36-3.78,22Z" transform="translate(-204 -114.34)"/></svg>