<svg width="29" height="24" viewBox="0 0 29 24" fill="none" xmlns="http://www.w3.org/2000/svg">
<path d="M28.1214 5.98809C28.1197 5.58096 28.0747 5.17474 27.9868 4.77417C27.8743 4.28505 27.7159 3.80841 27.4329 3.36633C27.1381 2.90039 26.7545 2.47687 26.2967 2.11209C25.6052 1.55192 24.7511 1.14856 23.8166 0.940886C22.9565 0.748886 22.0766 0.708566 21.1944 0.709526C21.1915 0.706309 21.1897 0.702491 21.1892 0.698486H7.80628C7.80628 0.702326 7.80628 0.706166 7.80628 0.709526C7.30458 0.717206 6.80172 0.713846 6.30292 0.765206C5.75591 0.813222 5.2174 0.913242 4.69806 1.06329C3.89031 1.30986 3.16128 1.70585 2.56656 2.22105C1.88484 2.7944 1.39392 3.50394 1.1415 4.28073C0.912981 4.98729 0.863101 5.70777 0.861941 6.43353L0.852661 17.5537C0.868901 18.0553 0.874121 18.5617 0.976201 19.059C1.08466 19.587 1.23952 20.101 1.53532 20.5801C1.92881 21.2218 2.48941 21.7833 3.17672 22.2241C3.66739 22.5477 4.22325 22.7972 4.8187 22.9609C5.69566 23.1951 6.60046 23.2849 7.5186 23.2892C8.09164 23.2921 8.66352 23.3041 9.23656 23.3022C11.2927 23.295 13.3482 23.3022 15.4043 23.3022V15.7546H12.3372V12.7201H15.4049V10.5457C15.4049 10.5457 15.1833 6.93369 19.4846 6.64569H22.7419V9.39369H20.3697C20.3697 9.39369 19.3581 9.55209 19.1981 10.3364V12.6658H22.5824L22.203 15.5713H19.1366V23.2993C19.9977 23.2958 20.859 23.2897 21.7205 23.281C22.2702 23.2711 22.8179 23.2229 23.3578 23.137C24.3787 22.9881 25.3287 22.6053 26.1001 22.0321C27.0153 21.3562 27.633 20.5297 27.912 19.5318C28.0947 18.8794 28.1399 18.2175 28.148 17.5537V17.4212C28.1475 17.3698 28.1237 6.13641 28.1214 5.98809Z" fill="white"/>
</svg>
