<svg width="29" height="26" viewBox="0 0 29 26" fill="none" xmlns="http://www.w3.org/2000/svg">
<path d="M14.5001 10.05C13.8493 10.05 13.2131 10.2231 12.672 10.5472C12.131 10.8714 11.7092 11.3321 11.4602 11.8711C11.2111 12.4101 11.146 13.0033 11.2729 13.5755C11.3999 14.1478 11.7133 14.6734 12.1734 15.0859C12.6336 15.4985 13.2199 15.7795 13.8581 15.8933C14.4964 16.0071 15.158 15.9487 15.7592 15.7254C16.3605 15.5021 16.8743 15.124 17.2359 14.6389C17.5974 14.1538 17.7904 13.5835 17.7904 13C17.7893 12.2179 17.4423 11.4682 16.8255 10.9151C16.2087 10.3621 15.3724 10.051 14.5001 10.05V10.05Z" fill="white"/>
<path d="M18.3709 5.48535H10.6291C9.43319 5.48659 8.28669 5.91306 7.44108 6.67119C6.59546 7.42933 6.11979 8.45723 6.11841 9.52939V16.4704C6.11979 17.5425 6.59546 18.5704 7.44108 19.3286C8.28669 20.0867 9.43319 20.5132 10.6291 20.5144H18.3709C19.5668 20.5132 20.7133 20.0867 21.5589 19.3286C22.4045 18.5704 22.8802 17.5425 22.8816 16.4704V9.52939C22.8802 8.45723 22.4045 7.42933 21.5589 6.67119C20.7133 5.91306 19.5668 5.48659 18.3709 5.48535V5.48535ZM14.5 17.5083C13.5054 17.5083 12.5332 17.2439 11.7062 16.7485C10.8793 16.2531 10.2348 15.549 9.85417 14.7252C9.47356 13.9014 9.37398 12.9949 9.56801 12.1203C9.76204 11.2458 10.241 10.4425 10.9442 9.81195C11.6475 9.18144 12.5435 8.75206 13.519 8.5781C14.4944 8.40414 15.5055 8.49342 16.4243 8.83465C17.3432 9.17588 18.1286 9.75374 18.6811 10.4951C19.2337 11.2365 19.5286 12.1082 19.5286 12.9999C19.5271 14.1952 18.9968 15.3411 18.054 16.1863C17.1113 17.0315 15.8332 17.5069 14.5 17.5083V17.5083ZM20.0256 9.17475C19.7801 9.17475 19.5401 9.10949 19.3359 8.98723C19.1318 8.86497 18.9726 8.69118 18.8786 8.48784C18.7845 8.2845 18.7598 8.06073 18.8076 7.84481C18.8554 7.62889 18.9735 7.43051 19.147 7.27475C19.3205 7.11898 19.5416 7.01283 19.7823 6.96969C20.0231 6.92656 20.2727 6.94839 20.4997 7.03241C20.7266 7.11644 20.9206 7.25889 21.0573 7.44177C21.194 7.62465 21.2671 7.83974 21.2674 8.05987C21.2677 8.20625 21.2358 8.35124 21.1736 8.48656C21.1113 8.62187 21.0199 8.74485 20.9045 8.84845C20.7892 8.95205 20.6522 9.03425 20.5014 9.09033C20.3506 9.14641 20.1889 9.17527 20.0256 9.17527V9.17475Z" fill="white"/>
<path d="M28.1212 6.48647C28.1196 6.04542 28.0746 5.60535 27.9867 5.17139C27.8742 4.64151 27.7158 4.12515 27.4328 3.64623C27.138 3.14165 26.7543 2.68301 26.2966 2.28799C25.6051 1.68114 24.751 1.24417 23.8165 1.01919C22.9563 0.811192 22.0765 0.767512 21.1943 0.768552C21.1914 0.765066 21.1896 0.760931 21.1891 0.756592H7.80616C7.80616 0.760752 7.80616 0.764912 7.80616 0.768552C7.30446 0.776872 6.8016 0.773232 6.3028 0.828872C5.75581 0.880721 5.21731 0.988901 4.69794 1.15127C3.89019 1.4184 3.16116 1.84738 2.56644 2.40551C1.88472 3.02664 1.3938 3.79531 1.14138 4.63683C0.912859 5.40227 0.862979 6.18279 0.861819 6.96903L0.852539 19.0159C0.868779 19.5593 0.873999 20.1079 0.976079 20.6466C1.08454 21.2186 1.2394 21.7755 1.5352 22.2945C1.92862 22.9899 2.48922 23.5983 3.1766 24.076C3.66726 24.4266 4.22312 24.6968 4.81858 24.8742C5.69554 25.128 6.60034 25.2252 7.51848 25.2299C8.09152 25.233 8.6634 25.246 9.23644 25.2439C13.3974 25.2283 17.5589 25.271 21.7198 25.221C22.2695 25.2102 22.8172 25.158 23.3571 25.065C24.3782 24.9038 25.3285 24.4891 26.0999 23.868C27.0152 23.1358 27.6329 22.2404 27.9119 21.1593C28.0946 20.4526 28.1398 19.7356 28.1479 19.0164V18.8729C28.1473 18.8167 28.1236 6.64767 28.1212 6.48647ZM24.6192 16.4705C24.6172 17.9557 23.9583 19.3796 22.7869 20.4299C21.6156 21.4801 20.0275 22.071 18.3709 22.073H10.629C8.97232 22.0712 7.38404 21.4803 6.21257 20.43C5.0411 19.3798 4.38209 17.9558 4.3801 16.4705V9.52951C4.38209 8.04419 5.0411 6.62022 6.21257 5.56994C7.38404 4.51965 8.97232 3.92882 10.629 3.92703H18.3709C20.0276 3.92882 21.6158 4.51965 22.7873 5.56994C23.9588 6.62022 24.6178 8.04419 24.6198 9.52951L24.6192 16.4705Z" fill="white"/>
</svg>
