<svg width="28" height="23" viewBox="0 0 28 23" fill="none" xmlns="http://www.w3.org/2000/svg">
<g clip-path="url(#clip0)">
<path d="M25.9806 0H2.01939C0.904039 0 0 0.742603 0 1.65879V21.3412C0 22.2574 0.904039 23 2.01939 23H25.9806C27.096 23 28 22.2574 28 21.3412V1.65879C28 0.742603 27.096 0 25.9806 0V0ZM21.0135 8.80285V10.3577C20.1209 10.358 19.2536 10.2143 18.4357 9.93083C17.9098 9.74845 17.4198 9.51342 16.9716 9.22947L16.9851 14.0155C16.9794 15.0933 16.4604 16.1058 15.521 16.8685C14.7564 17.4893 13.7876 17.8842 12.7376 18.0119C12.4909 18.0419 12.2398 18.0573 11.9859 18.0573C10.8619 18.0573 9.79475 17.7582 8.92183 17.2064C8.75755 17.1025 8.60048 16.9899 8.45086 16.8685C7.43274 16.042 6.90774 14.9216 6.99612 13.7431C7.0636 12.8459 7.50083 11.9904 8.22976 11.3198C9.19417 10.4324 10.5434 9.93982 11.9859 9.93982C12.2398 9.93982 12.4909 9.95545 12.7376 9.9855V10.5604V12.1597C12.5038 12.0963 12.2539 12.0614 11.9937 12.0614C10.6758 12.0614 9.60952 12.9447 9.62921 14.0281C9.64168 14.7213 10.1027 15.3272 10.7826 15.6612C11.1021 15.8182 11.4697 15.9154 11.8619 15.9331C12.1693 15.947 12.4644 15.9118 12.7376 15.8377C13.6793 15.5822 14.3585 14.8557 14.3585 13.9988L14.3616 10.7938V4.94266H16.9685C16.971 5.15483 16.9972 5.36187 17.0459 5.56245C17.2427 6.37441 17.7999 7.07888 18.5753 7.55914C19.2515 7.97808 20.0934 8.22641 21.0061 8.22641C21.0067 8.22641 21.0142 8.22641 21.0136 8.22591V8.80285H21.0135Z" fill="white"/>
</g>
<defs>
<clipPath id="clip0">
<rect width="28" height="23" fill="white"/>
</clipPath>
</defs>
</svg>
