<svg width="544" height="397" viewBox="0 0 544 397" fill="none" xmlns="http://www.w3.org/2000/svg">
<mask id="mask0" mask-type="alpha" maskUnits="userSpaceOnUse" x="0" y="0" width="544" height="397">
<rect width="397" height="544" transform="matrix(0 -1 -1 0 544 397)" fill="#D0E6E3"/>
</mask>
<g mask="url(#mask0)">
<path d="M569.651 -4.56952C538.64 0.251402 509.324 4.84436 478.867 -9.32525C451.929 -21.8662 437.466 -37.5016 430.56 -61.6062C420.56 -96.5253 410.56 -137.764 412.189 -179.165C413.427 -210.957 414.599 -240.958 401.049 -271.935C396.358 -282.652 391.83 -293.825 387.433 -304.607C379.289 -324.607 370.853 -345.324 361.048 -364.445C351.276 -383.435 333.295 -407.866 303.164 -416.4C293.946 -419.006 284.597 -418.941 275.574 -418.908C268.636 -418.876 261.437 -418.843 254.271 -419.983C242.186 -421.938 233.261 -427.41 223.815 -433.208C220.069 -435.488 216.225 -437.866 212.088 -440.049C189.319 -452.101 168.765 -454.121 150.979 -446.075C117.005 -430.7 100.848 -382.1 94.236 -354.51C89.2847 -333.76 91.402 -315.91 93.6496 -296.984C94.9851 -285.942 96.3207 -274.541 96.223 -262.293C96.0927 -247.896 93.8451 -236.495 91.4672 -224.41C87.9166 -206.364 84.2032 -187.732 87.0046 -156.624C88.6659 -138.09 87.6235 -118.154 84.1381 -101.9C79.708 -81.3134 71.4995 -66.7203 60.3266 -59.6844C47.4926 -51.6061 30.9125 -53.137 10.9773 -64.2121V-65.7105C30.7496 -54.5703 47.1017 -52.909 59.61 -60.7918C85.5062 -77.1113 88.1773 -128.643 85.7016 -156.494C82.9003 -187.797 86.5811 -206.527 90.1642 -224.671C92.5421 -236.69 94.7897 -248.059 94.92 -262.326C95.0177 -274.476 93.6822 -285.844 92.3467 -296.854C90.0665 -315.877 87.9166 -333.858 92.933 -354.836C98.1122 -376.497 105.116 -395.194 113.715 -410.341C124.041 -428.517 136.386 -440.961 150.426 -447.313C168.602 -455.521 189.547 -453.502 212.674 -441.254C216.844 -439.039 220.72 -436.661 224.466 -434.381C233.782 -428.648 242.61 -423.24 254.434 -421.351C261.502 -420.211 268.636 -420.244 275.542 -420.276C284.662 -420.309 294.109 -420.374 303.49 -417.736C334.109 -409.104 352.318 -384.347 362.188 -365.129C372.025 -345.976 380.462 -325.259 388.638 -305.193C393.035 -294.411 397.563 -283.238 402.254 -272.554C415.935 -241.283 414.762 -211.12 413.492 -179.198C413.361 -176.233 413.329 -173.269 413.329 -170.305C413.329 -132.096 422.58 -94.3429 431.831 -62.0623C438.606 -38.3485 452.841 -22.9737 479.421 -10.5957C509.519 3.41106 538.64 -1.14926 569.455 -5.9376C576.491 -7.04511 583.722 -8.15265 590.986 -9.06472C593.104 -9.32531 595.188 -9.55328 597.306 -9.74872V-8.44577C595.254 -8.25033 593.169 -8.05488 591.117 -7.79429C583.918 -6.78451 576.686 -5.67703 569.651 -4.56952Z" fill="#D0E6E3"/>
<path d="M546.556 9.33936C514.341 11.6521 483.982 5.49567 458.737 -8.47849C444.275 -16.4916 435.056 -24.2116 428.77 -33.5603C423.037 -42.1272 419.291 -52.5509 415.903 -69.4892C415.349 -72.1929 414.795 -74.929 414.242 -77.6978C408.541 -105.809 402.124 -137.471 402.124 -166.755C402.124 -168.611 402.157 -170.468 402.189 -172.325C403.362 -212.684 400.724 -241.805 383.362 -280.144C381.244 -284.802 379.16 -289.59 377.108 -294.183C354.241 -345.943 332.644 -394.804 269.353 -396.628C267.041 -396.693 264.728 -396.726 262.448 -396.758C251.079 -396.921 240.363 -397.084 229.418 -401.156C223.261 -403.436 217.496 -406.921 211.926 -410.276C204.792 -414.576 197.43 -419.039 189.254 -420.961C158.146 -428.257 132.934 -404.087 119.709 -379.005C104.725 -350.634 105.572 -321.187 106.452 -290.046C106.484 -288.711 106.517 -287.375 106.55 -286.007C107.038 -267.831 103.716 -250.437 100.491 -233.563C97.8849 -219.882 95.1813 -205.745 94.5298 -191.283C93.9435 -178.155 94.8555 -164.54 95.735 -151.38C97.3963 -126.624 99.0901 -101.053 91.2399 -76.9486C85.0834 -57.9906 74.0083 -46.3618 57.4282 -41.378C38.6331 -35.7428 24.0075 -39.391 10.8477 -47.0458V-48.5768C23.9424 -40.8242 38.4377 -37.0457 57.0699 -42.6484C73.2265 -47.5019 83.9759 -58.8702 90.002 -77.3721C97.7872 -101.216 96.0608 -126.689 94.4321 -151.315C93.5526 -164.507 92.6405 -178.155 93.1943 -191.348C93.8132 -205.908 96.5494 -220.078 99.1553 -233.824C102.347 -250.6 105.67 -267.961 105.181 -285.975C105.149 -287.31 105.116 -288.678 105.084 -290.014C104.204 -321.35 103.357 -350.927 118.472 -379.624C125.898 -393.664 136.094 -405.651 147.267 -413.338C160.589 -422.524 175.183 -425.586 189.482 -422.231C197.854 -420.276 205.313 -415.749 212.512 -411.384C218.017 -408.061 223.75 -404.608 229.776 -402.361C240.526 -398.354 251.145 -398.224 262.383 -398.061C264.63 -398.028 266.976 -397.996 269.288 -397.931C284.696 -397.475 298.083 -394.315 310.168 -388.191C320.983 -382.751 330.527 -375.064 339.354 -364.738C355.707 -345.552 367.14 -319.721 378.182 -294.737C380.235 -290.144 382.319 -285.356 384.437 -280.698C401.896 -242.13 404.535 -212.846 403.362 -172.292C402.483 -141.608 409.323 -107.796 415.349 -77.9584C415.903 -75.1896 416.457 -72.4534 417.01 -69.7498C422.874 -40.5636 430.007 -25.7752 459.194 -9.61858C484.21 4.22529 514.308 10.3166 546.296 8.03641C553.234 7.5478 560.107 6.96147 566.752 6.40772C577.013 5.5608 587.078 4.71391 597.144 4.16016V5.46311C587.111 6.01686 577.078 6.86375 566.85 7.71067C560.4 8.26442 553.527 8.81818 546.556 9.33936Z" fill="#D0E6E3"/>
<path d="M468.51 6.37527C445.741 -0.106919 423.102 -9.55337 411.734 -34.7981C395.707 -70.4012 395.74 -110.5 395.805 -149.262C395.838 -174.865 395.87 -201.348 391.147 -225.778C385.707 -253.857 373.59 -285.844 358.671 -311.382C345.609 -333.76 323.85 -362.458 294.468 -372.165C279.842 -376.986 264.044 -378.419 248.734 -379.787C235.281 -380.992 221.372 -382.263 208.147 -385.813C172.837 -395.292 145.573 -384.608 131.371 -355.715C121.762 -336.203 120.166 -313.662 118.635 -291.903C118.276 -286.887 117.918 -281.675 117.462 -276.659C116.192 -262.75 113.293 -249.166 110.491 -236.039C108.569 -227.081 106.582 -217.798 105.149 -208.482C102.152 -189.361 103.162 -168.253 104.139 -147.829C105.703 -114.734 107.299 -80.4991 92.771 -51.4758C87.4289 -40.8242 79.09 -32.7459 68.0149 -27.5015C58.0799 -22.8109 46.2231 -20.6284 33.6496 -21.1822C24.7895 -21.5731 17.4278 -23.5926 11.0108 -26.6871V-28.153C17.4278 -24.9607 24.7895 -22.876 33.7147 -22.4851C60.4904 -21.2799 81.5982 -32.0618 91.5984 -52.0296C105.963 -80.7271 104.367 -114.799 102.836 -147.731C101.859 -168.22 100.882 -189.393 103.879 -208.644C105.345 -217.993 107.332 -227.277 109.253 -236.267C112.055 -249.362 114.954 -262.88 116.224 -276.724C116.68 -281.707 117.039 -286.919 117.397 -291.936C118.96 -313.858 120.556 -336.497 130.263 -356.236C137.788 -371.579 148.863 -381.904 163.163 -386.921C176.29 -391.546 191.535 -391.579 208.538 -386.986C221.633 -383.468 235.509 -382.23 248.897 -381.025C264.272 -379.657 280.135 -378.224 294.924 -373.338C324.696 -363.5 346.651 -334.542 359.844 -311.968C374.828 -286.333 387.01 -254.183 392.483 -225.941C397.238 -201.38 397.206 -174.865 397.173 -149.197C397.108 -110.565 397.075 -70.6292 413.004 -35.2867C424.144 -10.5306 446.49 -1.21441 468.966 5.17005C505.546 15.5611 547.175 18.1669 589.293 12.6946C591.997 12.3362 594.701 12.1082 597.404 11.9453V13.2483C594.733 13.3786 592.095 13.6392 589.456 13.965C547.045 19.4048 505.253 16.7989 468.51 6.37527Z" fill="#D0E6E3"/>
<path d="M563.072 23.5745C548.446 24.8775 533.332 26.213 518.445 24.3889C484.992 20.3171 452.94 10.7078 430.561 -1.96338C417.401 -9.3902 408.346 -18.576 402.092 -30.7586C395.968 -42.6806 393.069 -56.7525 390.854 -70.1729C384.469 -108.61 381.635 -141.64 381.635 -177.145C381.635 -177.504 381.635 -177.829 381.635 -178.188C381.635 -242.749 358.117 -301.414 317.074 -339.2C295.543 -359.037 268.995 -362.164 241.405 -363.793C236.812 -364.054 232.122 -364.51 227.171 -364.966C203.327 -367.148 176.258 -369.624 157.495 -353.728C130.003 -330.405 125.964 -289.232 122.055 -249.361C120.459 -233.14 118.83 -216.397 115.573 -201.413C111.827 -184.116 111.99 -165.451 112.185 -145.646C112.478 -114.734 112.804 -79.6845 97.2337 -43.8207C87.1684 -20.6607 69.3179 -11.1817 48.6661 -0.204346C47.7541 0.284261 46.8094 0.772868 45.8974 1.26148C43.8127 2.36898 40.5553 4.84453 36.8093 7.71102C28.9916 13.672 20.1315 20.4149 15.2454 20.0565C13.8122 19.9588 12.4115 19.405 11.0434 18.5581V16.962C12.4441 18.0044 13.8774 18.6559 15.3432 18.7536C19.7406 19.0793 28.7636 12.2062 36.0275 6.66868C39.8387 3.76961 43.0961 1.26148 45.3111 0.121392C46.2557 -0.367215 47.1678 -0.855822 48.0798 -1.34443C68.5362 -12.1915 86.1912 -21.5728 96.061 -44.3093C111.534 -79.9125 111.208 -114.799 110.915 -145.614C110.719 -165.484 110.556 -184.214 114.335 -201.641C117.56 -216.527 119.188 -233.27 120.785 -249.427C124.726 -289.525 128.765 -330.991 156.681 -354.64C175.867 -370.894 203.196 -368.386 227.301 -366.204C232.252 -365.748 236.943 -365.324 241.503 -365.064C254.826 -364.249 268.995 -363.011 282.188 -359.396C296.422 -355.487 308.116 -349.167 317.986 -340.112C339.452 -320.34 356.032 -295.356 367.303 -265.779C377.564 -238.84 382.971 -208.546 382.971 -178.122C382.971 -178.025 382.971 -177.927 382.971 -177.829C382.938 -142.096 385.772 -108.936 392.189 -70.3358C396.717 -43.0389 402.776 -19.1624 431.278 -3.03833C453.526 9.53516 485.383 19.0793 518.673 23.1511C533.429 24.9426 548.478 23.6071 563.039 22.3367C574.342 21.3269 585.906 20.3171 597.404 20.7731V22.0761C585.873 21.5549 574.342 22.5973 563.072 23.5745Z" fill="#D0E6E3"/>
<path d="M560.432 35.8218C528.575 38.0042 504.21 36.9945 473.949 25.4959C469.877 23.9649 465.708 22.4666 461.278 20.8704C436.163 11.9452 407.694 1.81472 394.208 -22.0944C381.342 -44.9612 378.931 -72.9421 376.846 -97.6004C376.26 -104.408 375.706 -110.858 374.99 -116.949C373.198 -131.608 373.1 -146.526 372.97 -160.956C372.807 -180.11 372.644 -199.915 368.605 -219.166C358.019 -269.59 322.611 -330.959 257.724 -338.028C191.176 -345.292 155.442 -324.249 138.276 -267.733C121.272 -211.706 116.842 -171.315 120.719 -107.698C122.217 -83.0074 119.22 -61.7693 111.565 -42.7788C103.389 -22.5505 89.741 -4.17879 69.8058 13.3133C63.8774 18.5251 58.5678 25.1376 52.9 32.1409C41.206 46.6688 29.1211 61.6854 11.1404 63.933C11.1078 63.933 11.0752 63.933 11.0752 63.933V62.63C28.5022 60.415 40.3917 45.6265 51.9228 31.3266C57.5906 24.2581 62.9653 17.5805 68.9589 12.3361C106.875 -20.9869 122.445 -57.9907 119.416 -107.633C115.539 -171.445 119.969 -211.934 137.038 -268.124C146.094 -297.994 160.622 -317.995 181.436 -329.298C191.371 -334.673 202.577 -338.093 215.736 -339.689C228.082 -341.187 241.861 -341.09 257.854 -339.331C286.128 -336.236 311.862 -322.034 332.253 -298.222C350.234 -277.245 363.589 -249.264 369.876 -219.426C373.947 -200.012 374.11 -180.142 374.273 -160.956C374.403 -146.559 374.501 -131.673 376.293 -117.08C377.042 -110.956 377.596 -104.506 378.182 -97.6656C380.267 -73.105 382.645 -45.2869 395.381 -22.6807C408.606 0.804999 436.847 10.8377 461.734 19.6978C466.164 21.2939 470.366 22.7597 474.438 24.3232C504.503 35.7566 528.706 36.7338 560.367 34.584C573.723 33.6719 585.807 34.8446 597.371 37.0922V38.4277C585.775 36.0824 573.755 34.9097 560.432 35.8218Z" fill="#D0E6E3"/>
<path d="M476.099 40.5129C469.78 37.7441 463.232 35.1708 456.261 32.4346C441.896 26.7993 427.01 20.9686 414.013 13.1183C399.257 4.19307 389.127 -6.16539 383.101 -18.4783C362.742 -60.0425 359.485 -110.206 356.618 -154.474C356.358 -158.611 356.097 -162.715 355.804 -166.787C351.341 -231.967 327.888 -283.596 293.034 -304.9C268.18 -320.112 237.984 -320.307 203.358 -305.453C172.544 -292.261 152.185 -266.658 141.142 -227.179C131.435 -192.553 130.165 -153.171 128.895 -115.125C128.113 -91.0201 127.364 -68.2836 124.4 -49.0651L124.204 -47.7621C121.012 -26.8497 117.982 -7.07748 111.403 10.7404C104.041 30.7081 93.1613 45.6921 77.1675 57.9399C61.7275 69.7642 38.4047 80.6112 10.9776 88.7546V87.3214C36.2223 79.7969 60.0988 69.3732 76.3857 56.8974C110.914 30.4149 116.484 -5.9048 122.934 -47.9576L123.129 -49.2605C126.061 -68.3813 126.81 -91.1179 127.592 -115.157C128.862 -153.301 130.165 -192.748 139.872 -227.537C151.045 -267.407 171.632 -293.303 202.837 -306.659C237.887 -321.675 268.473 -321.447 293.718 -306.007C312.546 -294.476 327.79 -274.964 339.061 -247.928C348.833 -224.508 355.055 -196.462 357.074 -166.852C357.335 -162.813 357.628 -158.708 357.889 -154.539C360.755 -110.402 363.98 -60.3682 384.241 -19.032C397.498 8.06937 427.597 19.8611 456.717 31.2619C463.688 33.9981 470.268 36.5714 476.588 39.3402C496.425 48.0374 523.266 53.0864 551.67 58.4285C566.719 61.2624 582.224 64.1614 597.273 67.7445V69.0801C582.257 65.497 566.719 62.5979 551.41 59.7314C522.973 54.3242 496.067 49.2752 476.099 40.5129Z" fill="#D0E6E3"/>
<path d="M509.585 69.8944C491.604 64.8781 471.311 56.9626 450.919 46.995C431.342 37.4183 412.515 26.4084 396.456 15.1053C381.407 4.51882 370.169 -10.7257 362.156 -31.5078C355.218 -49.456 351.569 -68.87 348.149 -88.8377C346.26 -99.8151 344.859 -113.887 343.393 -128.773C340.69 -155.972 337.595 -186.82 330.494 -214.442C322.253 -246.397 310.168 -267.31 293.62 -278.385C278.311 -288.645 258.734 -290.307 235.509 -283.303C192.739 -270.469 172.12 -251.935 159.319 -214.866C145.117 -173.66 142.608 -129.783 140.165 -87.3719C139.905 -83.007 139.677 -78.6421 139.416 -74.2772C136.94 -33.0388 132.12 9.40489 113.878 40.5129C103.129 58.8193 87.6564 74.585 67.9492 87.3539C52.0206 97.6472 32.9324 106.279 11.0428 113.022V111.654C59.3823 96.6701 93.5848 72.5329 112.771 39.8614C130.882 9.01401 135.67 -33.2668 138.146 -74.3424C138.406 -78.7073 138.667 -83.0721 138.895 -87.437C141.338 -129.946 143.846 -173.92 158.113 -215.289C164.954 -235.094 174.107 -249.459 186.974 -260.502C198.798 -270.665 213.652 -278.092 235.15 -284.541C247.366 -288.222 258.669 -289.557 268.734 -288.515C278.148 -287.57 286.78 -284.509 294.37 -279.427C311.21 -268.157 323.425 -246.983 331.764 -214.703C338.931 -187.015 341.993 -156.103 344.729 -128.838C346.195 -113.985 347.595 -99.9454 349.485 -89.0006C355.185 -55.645 363.035 -9.97655 397.27 14.0955C430.952 37.7766 474.144 58.689 509.976 68.6892C520.269 71.5557 530.53 73.7056 540.432 75.7577C560.4 79.8946 579.651 83.9011 597.371 93.5429V95.0414C579.618 85.2041 560.27 81.1975 540.172 77.028C530.204 74.9108 519.943 72.7609 509.585 69.8944Z" fill="#D0E6E3"/>
<path d="M512.81 86.5067C477.63 76.7997 435.675 56.3433 397.727 30.382C357.27 2.69428 344.273 -31.215 336.488 -76.9487C335.12 -84.8967 334.208 -96.2975 333.133 -109.49C330.853 -137.471 327.693 -175.81 317.953 -206.006C306.455 -241.642 288.572 -258.743 263.262 -258.287C250.102 -258.059 234.825 -249.753 221.372 -242.456C216.682 -239.915 212.219 -237.505 208.082 -235.518C190.948 -227.407 181.111 -217.537 173 -200.338C155.443 -163.106 152.967 -117.829 150.817 -77.8933L150.459 -71.4437C148.179 -29.9121 145.833 13.0202 123.944 49.6005C115.41 63.8679 104.4 76.3437 90.23 87.7445C76.2558 99.015 60.5227 108.168 46.972 115.66C36.2878 121.556 24.1378 126.963 10.978 131.654V130.286C23.9098 125.628 35.8318 120.318 46.3206 114.52C80.6859 95.5296 105.475 77.9398 122.836 48.9491C144.563 12.6293 146.908 -30.1401 149.189 -71.5089L149.547 -77.9585C151.729 -118.024 154.172 -163.432 171.86 -200.892C180.101 -218.384 190.134 -228.417 207.561 -236.691C211.665 -238.645 216.095 -241.055 220.786 -243.596C234.402 -250.99 249.809 -259.329 263.262 -259.59C277.073 -259.851 288.963 -254.802 298.637 -244.573C306.943 -235.811 313.849 -222.977 319.191 -206.397C328.996 -176.038 332.123 -137.634 334.436 -109.588C335.511 -96.4278 336.455 -85.0595 337.791 -77.1767C345.543 -31.7688 358.41 1.87992 398.476 29.3071C436.294 55.2032 478.086 75.5618 513.168 85.2363C533.625 90.8715 551.28 95.7576 565.482 104.618C578.446 112.761 588.446 124.195 597.339 141.231V144.097C577.371 104.325 554.081 97.9075 512.81 86.5067Z" fill="#D0E6E3"/>
<path d="M449.811 318.823C432.156 327.846 413.883 337.162 399.322 353.058C374.208 380.518 355.738 393.971 318.8 396.121C285.737 398.043 250.329 394.199 213.489 384.687C180.296 376.12 147.005 363.286 114.529 346.511C108.438 343.384 101.598 340.289 94.3662 337.032C70.0987 326.087 42.5738 313.709 30.0003 292.992C19.9025 276.379 17.72 251.2 15.7656 228.952C15.1141 221.525 14.4952 214.554 13.6483 208.268C13.2248 205.173 13.0294 202.144 13.0294 199.179C13.0294 161.589 46.0918 135.107 78.1118 109.406C97.0372 94.2267 114.92 79.8942 126.419 63.477C155.996 21.3265 159.286 -24.9283 162.804 -73.8868C163.813 -88.0238 164.856 -102.649 166.582 -117.112C170.1 -146.624 176.322 -169.719 185.638 -187.765C198.407 -212.521 217.006 -227.179 240.948 -231.381C257.17 -234.215 271.144 -231.283 282.415 -222.619C295.9 -212.26 305.672 -194.117 312.252 -167.145C317.79 -144.474 319.907 -120.435 321.601 -101.151C321.992 -96.5255 322.383 -92.128 322.774 -88.2518C329.288 -24.1465 343.23 14.3883 401.276 47.0924C412.026 53.1511 423.101 60.2197 433.85 67.0602C452.971 79.2428 472.743 91.8488 492.711 100.253C500.431 103.478 508.9 105.823 517.141 108.103C536.132 113.348 555.774 118.755 568.282 135.726C579.553 151.035 586.133 168.006 586.882 183.577C587.729 201.492 580.791 217.095 566.849 228.659C555.448 238.138 544.015 248.203 533.005 257.943C518.9 270.386 504.34 283.22 489.551 295.044C477.043 304.914 463.199 311.983 449.811 318.823ZM532.06 256.9C543.103 247.161 554.504 237.095 565.937 227.584C580.107 215.825 585.579 201.329 585.579 186.573C585.579 168.756 577.566 150.547 567.142 136.41C554.927 119.797 535.48 114.455 516.718 109.276C508.477 106.996 499.942 104.65 492.157 101.393C472.092 92.9563 452.254 80.3177 433.101 68.1025C422.384 61.262 411.309 54.2261 400.592 48.1673C372.416 32.3039 353.686 14.4534 341.699 -7.98994C331.21 -27.5994 325.151 -51.5736 321.438 -88.154C321.047 -92.0303 320.656 -96.4278 320.265 -101.053C318.572 -120.304 316.487 -144.279 310.949 -166.852C304.435 -193.498 294.858 -211.413 281.6 -221.576C270.623 -230.013 257.007 -232.879 241.176 -230.078C217.658 -225.974 199.351 -211.511 186.778 -187.146C177.56 -169.263 171.371 -146.298 167.853 -116.949C166.126 -102.519 165.084 -87.8935 164.074 -73.789C162.315 -49.0655 160.654 -25.7101 155.637 -2.58266C149.97 23.6718 141.012 44.8773 127.461 64.2262C115.832 80.8062 97.8841 95.2039 78.8936 110.416C47.1016 135.921 14.2998 162.208 14.2998 199.212C14.2998 202.111 14.4952 205.043 14.9187 208.072C15.7982 214.391 16.3845 221.395 17.036 228.822C18.9578 250.907 21.1403 275.956 31.0753 292.275C43.4533 312.634 70.7827 324.947 94.8548 335.794C102.119 339.051 108.959 342.146 115.083 345.306C183.944 380.844 256.258 398.401 318.702 394.785C355.185 392.668 373.458 379.345 398.345 352.146C413.036 336.087 431.407 326.706 449.193 317.618C462.515 310.81 476.294 303.774 488.639 293.937C503.428 282.178 517.988 269.311 532.06 256.9Z" fill="#D0E6E3"/>
<path d="M372.97 360.583C352.318 378.01 321.992 385.534 282.871 383.026C255.542 381.267 223.913 374.557 188.863 363.124C166.876 355.957 147.56 343.384 128.862 331.234C123.031 327.455 117.005 323.514 110.979 319.833C107.95 317.976 104.79 316.12 101.728 314.295C85.4413 304.719 68.6332 294.816 58.9588 277.78C51.1411 264.002 47.1997 248.887 47.1997 232.535C47.1997 222.079 48.7958 211.134 52.0206 199.733C58.3073 177.453 70.6528 153.479 88.7638 128.56C93.3567 122.208 98.0148 115.954 102.51 109.927C132.348 69.7965 160.524 31.8806 167.592 -22.2245C169.156 -34.2116 170.101 -46.948 171.013 -59.2609C174.14 -101.639 177.397 -145.484 205.671 -178.742C221.991 -197.928 239.385 -205.55 255.933 -200.827C267.268 -197.602 277.79 -188.709 286.356 -175.158C294.304 -162.585 300.037 -146.722 302.448 -130.467C304.468 -116.949 305.738 -103.92 306.943 -91.3461C311.764 -41.671 315.933 1.22864 363.654 36.3758C409.29 69.9919 460.073 100.448 504.862 127.289C526.588 140.319 548.641 157.42 547.533 185.629C546.784 205.141 533.266 219.441 520.204 233.284C517.728 235.89 515.415 238.366 513.168 240.874C511.669 242.568 510.171 244.229 508.738 245.858C488.119 269.083 471.799 287.422 443.004 302.341C422.678 312.862 409.583 325.761 395.674 339.442C388.703 346.316 381.439 353.417 372.97 360.583ZM442.418 301.136C471.017 286.315 487.239 268.073 507.793 244.946C509.259 243.317 510.725 241.623 512.223 239.962C514.503 237.421 516.946 234.848 519.292 232.34C532.191 218.691 545.514 204.554 546.263 185.531C546.295 184.88 546.295 184.228 546.295 183.609C546.295 157.225 525.09 140.873 504.21 128.364C459.388 101.491 408.573 71.0343 362.905 37.3856C314.728 1.88014 310.526 -41.2801 305.673 -91.2483C304.467 -103.822 303.197 -116.851 301.178 -130.304C296.031 -164.898 277.268 -193.4 255.574 -199.589C239.548 -204.182 222.61 -196.69 206.648 -177.927C178.635 -144.995 175.41 -101.379 172.283 -59.1957C171.371 -46.8828 170.426 -34.1139 168.863 -22.0942C165.605 2.79218 158.016 25.4636 144.954 49.3402C133.325 70.5783 118.862 90.0574 103.52 110.677C99.0246 116.703 94.3991 122.957 89.7736 129.309C69.0567 157.843 48.5352 195.499 48.5352 232.731C48.5352 247.845 51.9229 262.861 60.0663 277.161C69.5779 293.872 86.2557 303.709 102.38 313.188C105.442 314.979 108.601 316.869 111.663 318.725C117.722 322.439 123.748 326.348 129.579 330.159C148.178 342.276 167.43 354.785 189.254 361.886C224.206 373.287 255.737 379.964 282.969 381.723C321.732 384.231 351.732 376.772 372.156 359.573C380.592 352.439 387.824 345.338 394.795 338.465C408.736 324.752 421.929 311.755 442.418 301.136Z" fill="#D0E6E3"/>
<path d="M130.197 290.484C113.357 275.63 102.347 260.255 96.5486 243.48C93.4541 234.489 91.8906 225.238 91.8906 215.499C91.8906 209.082 92.5746 202.469 93.9102 195.629C100.164 163.706 120.165 131.393 139.546 100.155C150.751 82.0765 162.348 63.4117 170.719 45.431C181.794 21.7498 186.615 -4.27667 191.273 -29.4236C195.638 -52.9093 200.133 -77.1768 209.71 -99.6527C213.326 -108.154 218.212 -115.288 223.847 -120.272C229.482 -125.288 235.606 -127.894 241.535 -127.829C251.665 -127.699 260.362 -119.816 266.03 -105.614C271.698 -91.4441 273.099 -76.1345 274.434 -61.346C275.477 -49.9451 276.551 -38.1208 279.581 -27.0131C289.06 7.74311 318.181 29.8281 346.325 51.2291C350.885 54.682 355.575 58.2651 360.038 61.7505C368.54 68.4607 377.53 74.8777 387.042 81.653C413.948 100.806 441.733 120.611 458.444 147.876C464.828 158.332 468.444 169.505 469.193 181.133C469.877 191.785 468.118 202.762 464.046 213.837C456.75 233.545 442.092 253.024 422.71 268.692C422.678 268.724 422.678 268.724 422.645 268.724C407.987 277.878 395.153 290.353 382.742 302.373C371.178 313.611 359.191 325.24 345.999 333.839C331.178 343.481 316.226 348.27 300.298 348.498C271.535 348.888 239.482 343.807 210.036 334.133C178.472 323.839 150.849 308.725 130.197 290.484ZM300.298 347.227C335.282 346.739 357.921 324.751 381.863 301.494C394.306 289.409 407.172 276.9 421.928 267.682C455.349 240.613 484.665 193.218 457.336 148.592C440.789 121.556 413.101 101.849 386.293 82.7606C376.781 75.9852 367.758 69.5682 359.224 62.8254C354.761 59.3075 350.071 55.7569 345.543 52.3041C331.601 41.7176 317.204 30.7728 305.119 18.1341C291.405 3.76908 282.643 -10.8565 278.343 -26.6223C275.281 -37.8602 274.174 -49.7171 273.131 -61.1831C271.796 -75.8739 270.395 -91.0858 264.792 -105.093C259.32 -118.773 251.046 -126.396 241.502 -126.494C230.036 -126.624 218.016 -115.874 210.883 -99.1316C201.371 -76.7859 196.876 -52.5836 192.544 -29.163C187.853 -3.91834 183.032 22.1733 171.892 45.9847C163.455 63.998 151.859 82.728 140.654 100.839C121.337 131.98 101.402 164.195 95.1806 195.889C88.2098 231.493 99.9689 262.112 131.044 289.506C171.208 324.914 239.222 348.107 300.298 347.227Z" fill="#D0E6E3"/>
<path d="M292.578 365.338C259.809 362.895 220.427 354.329 187.235 342.439C166.941 335.175 148.765 326.673 133.227 317.227C115.637 306.51 101.435 294.556 91.1094 281.656C76.9398 264.034 69.8061 244.587 69.8061 223.675C69.8061 219.147 70.1319 214.587 70.8159 209.929C76.4838 170.515 100.849 135.433 124.4 101.491C133.423 88.4938 141.925 76.2461 149.384 63.8029C169.091 30.9685 173.782 -2.97341 178.733 -38.9023C181.404 -58.1534 184.14 -78.0234 189.385 -97.7631C192.121 -108.024 198.114 -124.376 206.714 -139.458C213.815 -151.868 225.216 -167.634 239.288 -172.227C248.669 -175.289 258.115 -173.074 267.301 -165.68C276.454 -158.285 282.611 -146.559 286.129 -129.848C289.125 -115.516 289.712 -100.043 290.233 -86.3949C290.396 -81.8672 290.559 -77.5674 290.787 -73.6585C293.979 -21.5405 311.862 12.6946 350.592 40.9035C396.586 74.3568 440.789 108.396 489.682 146.247C489.715 146.28 489.715 146.28 489.748 146.312C502.321 158.821 507.696 173.772 505.709 190.743C503.135 212.763 488.64 233.643 476.946 247.258C463.591 262.796 446.033 277.976 429.975 287.845C414.274 297.487 400.984 309.507 388.15 321.136C361.211 345.534 335.771 368.563 292.578 365.338ZM387.303 320.159C400.17 308.497 413.492 296.445 429.323 286.738C445.284 276.933 462.711 261.884 476.001 246.412C487.598 232.926 501.93 212.274 504.471 190.613C504.731 188.365 504.862 186.183 504.862 184.033C504.862 170.189 499.52 157.876 488.933 147.289C440.072 109.471 395.87 75.4643 349.908 42.011C310.82 13.574 292.774 -20.9867 289.549 -73.5283C289.321 -77.4697 289.158 -81.7694 288.995 -86.2972C288.507 -99.8805 287.92 -115.288 284.923 -129.523C281.471 -145.94 275.477 -157.406 266.552 -164.605C257.724 -171.738 248.701 -173.856 239.776 -170.924C213.424 -162.324 195.085 -113.724 190.72 -97.3723C185.476 -77.6977 182.739 -57.8603 180.068 -38.6743C175.085 -2.61512 170.361 31.4571 150.557 64.5195C143.097 76.9627 134.563 89.243 125.507 102.272C102.022 136.084 77.7541 171.036 72.1514 210.157C68.438 235.923 75.1808 259.734 92.1843 280.875C134.986 334.133 235.574 359.801 292.741 364.068C335.315 367.228 360.56 344.361 387.303 320.159Z" fill="#D0E6E3"/>
<path d="M116.223 243.806C111.337 232.47 108.927 220.548 108.927 207.812C108.927 196.346 110.914 184.261 114.855 171.362C122.152 147.55 135.279 124.358 147.005 104.488C149.97 99.4713 153.032 94.3898 155.996 89.4711C167.038 71.1972 178.439 52.2719 187.006 32.4344C193.684 16.9293 197.755 0.51209 201.729 -15.3839C204.238 -25.4818 206.844 -35.9054 210.068 -46.0359C210.427 -47.1108 210.818 -48.4789 211.306 -50.075C215.215 -63.1697 222.479 -87.5674 233.912 -88.9681C236.746 -89.3264 239.222 -88.6424 241.274 -86.9811C247.593 -81.9322 248.994 -68.6747 250.004 -58.9677C250.33 -55.9383 250.59 -53.3324 250.981 -51.4106C260.851 -0.856042 290.428 22.7926 327.888 52.6953C331.666 55.6921 335.543 58.8192 339.484 62.0115C342.351 64.3242 345.25 66.6695 348.149 68.9822C368.051 85.0085 388.605 101.589 406.423 120.188C419.681 134.032 427.336 146.117 431.179 159.375C434.762 171.687 435.284 185.499 432.906 205.564C429.876 231.265 410.234 248.627 394.469 262.601C385.837 270.256 377.889 278.855 370.234 287.162C362.839 295.175 355.185 303.481 346.911 310.908C330.298 325.794 307.659 332.83 279.581 331.82C258.766 331.071 235.346 326.087 207.984 316.543C187.071 309.279 169.025 300.158 154.367 289.474C136.484 276.445 123.65 261.07 116.223 243.806ZM346.064 309.898C354.273 302.536 361.927 294.263 369.289 286.249C376.976 277.911 384.924 269.311 393.622 261.591C409.225 247.78 428.638 230.581 431.635 205.369C432.547 197.551 433.134 190.385 433.134 183.675C433.134 160.873 426.619 143.12 405.479 121.035C387.726 102.501 367.204 85.9531 347.334 69.9268C344.435 67.5815 341.569 65.2688 338.67 62.9235C334.761 59.7312 330.852 56.6367 327.073 53.6399C308.865 39.112 291.666 25.3659 278.213 9.24192C263.326 -8.57595 254.271 -27.7946 249.711 -51.2477C249.32 -53.2021 249.059 -55.8406 248.733 -58.9025C247.724 -68.3815 246.388 -81.3458 240.46 -86.0365C238.636 -87.4697 236.551 -88.0235 234.043 -87.7304C223.456 -86.4274 216.062 -61.6713 212.511 -49.7493C212.023 -48.1532 211.632 -46.7851 211.274 -45.6776C208.049 -35.5797 205.443 -25.1561 202.967 -15.0908C198.993 0.87037 194.889 17.3528 188.179 32.9231C179.579 52.8582 168.146 71.7835 157.103 90.1226C154.139 95.0412 151.077 100.123 148.113 105.139C128.504 138.364 110.164 173.121 110.164 207.649C110.164 219.571 112.347 231.46 117.428 243.252C134.269 282.438 176.192 304.035 208.407 315.24C271.34 337.162 317.66 335.338 346.064 309.898Z" fill="#D0E6E3"/>
<path d="M129.285 235.76C125.018 224.848 122.868 213.61 122.868 201.818C122.868 191.199 124.595 180.124 128.08 168.495C134.53 146.899 145.931 126.182 156.973 106.181L157.201 105.725C179.905 64.5195 198.179 28.8838 213.521 -11.0517C218.179 -23.2017 222.674 -29.065 227.658 -29.4885C234.596 -30.1074 240.948 -19.7163 247.626 -8.70637C250.851 -3.39684 254.206 2.07558 257.724 6.53819C275.998 29.7307 301.21 48.0046 325.575 65.6921C351.308 84.3569 375.608 101.979 392.286 124.814C401.277 137.094 407.172 149.733 410.332 163.414C413.85 178.723 413.85 194.978 410.365 213.089C406.879 231.2 390.527 246.477 376.097 259.962C371.504 264.262 367.139 268.334 363.458 272.275C361.113 274.783 358.768 277.357 356.52 279.832C344.175 293.383 332.546 306.184 314.761 312.862C299.321 318.66 280.851 320.387 259.874 318.041C242.772 316.12 224.108 311.461 205.899 304.523C188.276 297.813 172.902 288.92 160.198 278.106C145.963 265.956 135.539 251.689 129.285 235.76ZM206.42 303.318C225.834 310.712 275.183 326.348 314.37 311.657C331.829 305.11 343.393 292.406 355.608 278.985C357.856 276.51 360.201 273.936 362.579 271.428C366.325 267.454 370.657 263.383 375.283 259.083C389.55 245.728 405.739 230.613 409.159 212.893C423.557 138.364 375.608 103.575 324.891 66.7671C300.428 49.0144 275.151 30.6754 256.779 7.35253C253.196 2.82477 249.841 -2.68018 246.584 -8.02229C240.101 -18.6739 233.977 -28.7393 227.821 -28.1855C223.424 -27.7946 219.156 -22.029 214.759 -10.5631C199.384 29.4376 181.11 65.1059 158.374 106.377L158.146 106.833C141.338 137.322 124.106 168.593 124.106 201.623C124.106 212.633 126.028 223.871 130.523 235.336C142.152 264.913 169.09 289.083 206.42 303.318Z" fill="#D0E6E3"/>
<path d="M145.019 229.538C141.989 220.19 140.458 210.059 140.458 199.245C140.458 192.893 140.98 186.28 142.054 179.472C147.462 144.618 166.061 108.396 181.664 80.7412C183.619 77.2558 185.768 72.8909 188.277 67.8094C193.749 56.6691 200.59 42.7928 208.635 32.2714C218.212 19.7957 227.528 14.5512 237.17 16.2776C247.528 18.1018 261.144 28.9163 272.056 37.581C276.649 41.2292 280.982 44.682 284.5 46.9948C298.474 56.2457 313.295 66.2133 326.878 77.6467C365.576 110.123 386.13 142.664 387.987 174.358C389.452 200.026 378.573 225.401 355.576 249.702C354.761 250.679 353.98 251.656 353.198 252.633C332.318 278.269 314.272 300.386 278.246 303.644C260.949 305.207 242.414 303.318 224.662 298.171C206.551 292.927 189.971 284.49 176.648 273.806C161.175 261.265 150.524 246.412 145.019 229.538ZM177.462 272.699C204.108 294.132 242.675 305.468 278.115 302.276C313.588 299.083 331.471 277.129 352.155 251.754C352.937 250.776 353.752 249.799 354.566 248.822L354.598 248.789C375.999 226.183 386.814 202.698 386.814 178.919C386.814 177.42 386.781 175.922 386.684 174.391C384.892 143.088 364.468 110.839 326.064 78.5913C312.513 67.2231 297.757 57.2555 283.783 48.0371C280.233 45.6918 275.868 42.239 271.242 38.5582C260.428 29.9913 246.975 19.307 236.909 17.5155C227.821 15.9194 218.896 20.9683 209.645 33.0206C201.665 43.4117 194.857 57.2229 189.417 68.3306C186.909 73.4121 184.759 77.8421 182.772 81.3275C167.234 108.885 148.699 144.977 143.325 179.635C142.25 186.541 141.729 193.153 141.729 199.538C141.729 229.375 153.52 253.447 177.462 272.699Z" fill="#D0E6E3"/>
<path d="M155.149 191.166C155.149 161.654 165.671 132.305 174.954 112.175C181.99 96.9627 189.091 82.2719 198.994 70.1219C210.916 55.4637 224.239 47.9717 239.776 47.1574C251.894 46.5385 265.021 49.9262 278.832 57.1901C289.126 62.5974 299.745 70.0242 312.188 80.5781C329.908 95.5621 353.198 119.439 363.426 148.169C368.182 161.524 369.583 174.684 367.596 187.225C365.413 201.069 359.061 214.391 348.736 226.834C346.325 230.352 343.98 233.968 341.7 237.421C326.748 260.288 312.611 281.884 283.262 288.399C270.363 291.265 255.542 291.135 240.428 288.008C226.193 285.076 212.349 279.702 200.362 272.47C172.772 255.825 157.658 231.232 155.41 199.407C155.215 196.671 155.149 193.935 155.149 191.166ZM201.046 271.363C226.03 286.445 258.213 292.633 283.002 287.129C311.829 280.711 325.836 259.343 340.657 236.704C342.937 233.219 345.315 229.603 347.726 226.053C347.726 226.02 347.758 226.02 347.758 225.988C360.723 210.385 367.237 193.674 367.237 176.019C367.237 167.094 365.576 157.941 362.254 148.592C352.156 120.155 329.028 96.4416 311.406 81.5553C293.784 66.6691 267.203 47.0597 239.874 48.4603C204.987 50.2519 187.658 87.8421 176.16 112.728C166.615 133.413 156.322 162.469 156.322 191.459C156.29 221.232 167.202 250.939 201.046 271.363Z" fill="#D0E6E3"/>
<path d="M171.826 144.292C175.344 129.374 180.849 115.074 187.787 102.924C195.247 89.8942 203.977 79.7312 213.749 72.7278C227.755 62.6951 243.717 60.0892 261.209 64.9753C281.339 70.6105 298.375 84.715 309.125 95.5946C322.545 109.178 333.913 125.465 340.265 140.286C348.148 158.723 347.334 185.238 338.083 211.264C333.62 223.773 327.431 235.467 320.102 245.141C312.219 255.565 303.392 263.285 293.848 268.138C283.945 273.154 272.968 275.793 261.176 275.956C250.069 276.086 238.798 274.066 227.69 269.93C205.377 261.591 186.908 245.792 176.973 226.639C170.654 214.391 167.396 198.463 167.396 180.938C167.429 169.179 168.895 156.768 171.826 144.292ZM178.178 225.988C199.123 266.444 255.085 286.379 293.294 266.933C311.34 257.78 327.627 236.769 336.878 210.808C341.861 196.801 344.37 182.664 344.37 169.733C344.37 158.951 342.611 149.016 339.093 140.774C326.487 111.328 293.783 75.3989 260.883 66.2131C243.814 61.4573 228.212 63.9981 214.531 73.7702C195.898 87.1255 180.393 113.608 173.097 144.586C165.833 175.4 167.722 205.824 178.178 225.988Z" fill="#D0E6E3"/>
<path d="M241.6 79.6987C258.147 78.0374 274.532 83.7705 288.962 96.2788C309.223 113.804 323.621 143.12 324.793 169.212C325.64 183.316 323.197 197.876 317.627 211.264C312.024 224.815 303.653 236.248 293.457 244.327C285.835 250.353 277.431 254.359 268.473 256.216C258.799 258.203 248.668 257.649 238.375 254.555C218.179 248.464 202.218 235.532 192.283 217.128C185.41 204.359 181.827 189.603 181.827 174.358C181.827 168.984 182.283 163.576 183.162 158.169C184.954 147.257 189.579 126.344 200.426 108.657C211.176 91.067 225.02 81.3274 241.6 79.6987ZM184.465 158.332C183.553 163.902 183.097 169.374 183.097 174.749C183.097 211.851 204.466 242.991 238.733 253.285C263.457 260.711 281.698 251.949 292.61 243.284C311.796 228.105 323.621 201.688 323.621 174.782C323.621 172.925 323.555 171.101 323.458 169.244C322.285 143.478 308.05 114.52 288.05 97.2234C273.88 84.9757 257.854 79.3404 241.665 80.9691C199.742 85.1711 187.299 141.231 184.465 158.332Z" fill="#D0E6E3"/>
<path d="M267.724 142.599C272.838 151.036 276.063 161.948 276.552 172.469C277.073 183.577 274.597 192.991 269.548 199.017C258.897 211.786 248.604 211.134 241.828 208.333C234.043 205.108 226.616 197.128 221.372 186.411C216.942 177.355 214.531 167.29 214.531 158.169C214.531 156.704 214.596 155.238 214.727 153.805C216.062 139.081 224.043 129.407 237.17 126.573C243.392 125.237 249.32 126.149 254.825 129.277C259.711 132.078 264.141 136.671 267.724 142.599ZM237.463 127.843C224.922 130.547 217.3 139.83 216.03 153.935C215.118 163.902 217.496 175.531 222.545 185.857C227.626 196.281 234.857 204.033 242.317 207.128C251.437 210.906 260.493 207.812 268.539 198.203C273.36 192.437 275.738 183.316 275.249 172.534C274.76 162.209 271.633 151.524 266.617 143.283C262.285 136.084 252.708 124.553 237.463 127.843Z" fill="#D0E6E3"/>
<path d="M258.962 162.306C261.698 168.234 262.806 174.586 261.959 179.309C261.014 184.586 257.659 187.779 252.577 188.235C242.87 189.114 235.216 185.596 231.632 178.593C230.199 175.824 229.515 172.664 229.515 169.44C229.515 163.641 231.73 157.55 235.867 152.762C240.395 147.517 245.053 148.201 248.147 149.667C252.219 151.654 256.16 156.247 258.962 162.306ZM236.844 153.641C230.72 160.71 229.027 170.743 232.773 178.006C236.16 184.619 243.164 187.811 252.447 186.964C258.18 186.443 260.102 182.404 260.688 179.081C260.884 178.072 260.949 176.997 260.949 175.889C260.949 166.475 254.695 154.293 247.561 150.872C243.652 149.016 240.036 149.928 236.844 153.641Z" fill="#D0E6E3"/>
<path d="M253.848 175.401C253.001 178.17 251.112 179.863 248.538 180.157C245.444 180.515 243.033 178.756 242.121 175.433C241.861 174.489 241.73 173.479 241.73 172.437C241.73 168.984 243.164 165.335 246.03 164.033C248.05 163.12 249.971 163.348 251.535 164.717C253.945 166.899 255.02 171.687 253.848 175.401ZM246.551 165.238C243.522 166.606 242.382 171.59 243.359 175.108C243.815 176.704 245.053 179.277 248.375 178.886C250.981 178.56 252.089 176.606 252.577 175.043C252.87 174.13 253.001 173.153 253.001 172.176C253.001 169.635 252.121 167.062 250.623 165.726C249.483 164.684 248.115 164.521 246.551 165.238Z" fill="#D0E6E3"/>
<path d="M284.565 118.006C293.718 129.276 299.81 144.944 301.699 162.176C303.588 179.245 301.145 195.825 294.891 208.919C287.855 223.578 276.584 232.633 262.252 235.109C251.796 236.9 242.056 235.988 233.326 232.307C225.346 228.952 218.375 223.415 212.577 215.858C204.108 204.815 198.57 189.799 197.007 173.577C196.681 170.352 196.551 167.16 196.551 164C196.551 151.296 199.026 139.081 203.782 128.886C207.756 120.319 213.098 113.478 219.711 108.527C226.909 103.12 235.411 100.155 244.955 99.6994C260.493 98.8851 274.174 105.237 284.565 118.006ZM245.02 100.937C227.268 101.784 213.033 111.915 204.922 129.374C192.674 155.759 196.42 192.6 213.587 215.043C221.958 225.988 237.17 238.105 262.024 233.806C275.9 231.395 286.845 222.6 293.686 208.333C298.474 198.333 300.982 186.215 300.982 173.381C300.982 169.733 300.787 166.02 300.363 162.306C296.91 130.579 278.441 99.3086 245.02 100.937Z" fill="#D0E6E3"/>
</g>
</svg>
