<svg id="Layer_2" data-name="Layer 2" xmlns="http://www.w3.org/2000/svg" viewBox="0 0 190.52 183.48"><defs><style>.cls-1{fill:#fcfafa;}</style></defs><polygon class="cls-1" points="109.83 17.13 114.26 16.09 120 13.48 127.91 9.56 133.83 6.43 140.61 3.56 147.39 1.48 160.17 1.48 163.56 1.48 166.17 2.44 169.83 3.65 173.3 5.39 176.44 7.65 179.56 10.61 182.35 14.44 184.44 17.13 186 19.83 187.56 23.83 188.61 26.78 189.65 29.57 190.52 33.04 190.52 53.39 190.52 60.48 189.83 65.91 188.96 71.83 187.91 79.13 186.7 84.7 184.96 91.3 182.87 98.09 180.09 105.74 177.13 113.91 173.83 121.39 170.87 128.87 167.39 135.83 163.91 141.91 160.26 149.39 155.39 157.74 150.17 164.87 145.48 171.3 140.26 177.39 135.39 181.22 129.83 183.48 122.52 183.48 116.96 182.61 106.87 177.74 99.39 172.87 92.91 168.52 86.7 163.48 80.44 157.91 73.3 151.3 66.35 144.87 60.78 138.61 55.39 132.87 50.7 127.3 46.17 120.87 42.17 114.78 38 107.65 35.56 100 33.83 95.48 32.78 78.96 33.65 76 35.22 70.96 36.61 67.48 39.39 63.48 43.56 59.3 47.91 56.35 52.78 54.26 56.44 52.87 63.96 52.7 67.56 53.39 72.26 55.48 76.96 57.74 82 60.17 86.35 62.78 91.04 65.39 95.39 67.48 100.26 69.22 102.7 70.44 103.74 73.04 103.39 74.96 100.61 76.35 94.52 76.35 90.17 74.96 84.96 72.87 79.74 70.26 73.48 67.65 68.78 66.61 63.04 66.44 58.7 67.3 54 70.09 51.22 74.09 49.65 77.74 48.78 79.83 48.09 83.65 47.91 91.3 48.61 94.96 50.35 98.78 52.09 103.65 54.17 108.35 57.83 114.26 61.48 119.48 63.96 123.48 68.44 128.17 72.96 132.87 77.3 137.04 81.13 140.35 84.61 143.3 88.44 146.44 92.09 149.56 97.48 153.74 102.87 157.56 108.96 161.91 113.65 165.04 119.22 166.78 125.65 166.78 129.83 165.04 132.78 163.48 135.22 161.22 137.13 158.78 138.87 155.65 140.96 152.52 142.87 149.22 144.78 145.74 147.39 141.56 149.83 136.35 152.26 132.52 154.52 127.65 157.83 120.7 160.44 114.61 162.7 109.04 164.78 102.96 167.04 95.3 169.3 89.04 171.04 81.39 172.61 75.13 173.3 70.96 174.17 65.04 174.7 59.13 175.39 51.48 175.22 43.83 175.22 36.87 174.7 32.7 173.48 27.48 170.7 22.09 166.87 18.43 162.17 16.35 154.17 15.83 148.78 16 144.26 16.87 138.17 18.26 132.44 20.17 127.91 21.39 123.56 22.09 109.83 22.43 109.83 17.13"/><polygon class="cls-1" points="105.48 58.96 108.96 57.56 113.13 55.48 118 53.56 123.04 52.17 126.87 51.13 134.87 51.13 138.87 52.52 141.13 53.04 146.52 56.87 150.7 60.7 153.65 65.22 155.74 69.74 157.3 74.26 158.35 79.48 158.35 85.22 158.35 91.3 157.65 94.61 156.61 99.13 154.7 105.04 152.26 110.61 149.13 116.87 145.3 123.13 141.13 128.35 137.83 133.22 133.65 137.39 128.61 142.26 123.04 148 118.35 152.7 112.61 157.39 109.83 158.61 104.61 156.52 102.17 154.26 100.44 150.78 101.13 147.13 104.44 143.65 108.44 139.3 112.78 135.65 117.65 130.96 121.13 126.61 124.78 122.61 129.39 117.56 132.09 112.87 134.87 107.83 136.78 104 139.22 98.96 140.96 94.44 141.65 89.04 142 80.17 140.26 74.96 137.3 71.13 132.78 67.48 129.39 66.26 126.87 65.22 116.09 65.22 109.48 65.91 107.39 65.22 105.65 64.35 104.91 63.83 105 59.17 105.48 58.96"/><polygon class="cls-1" points="30 147.83 26.61 141.83 22.96 134.26 18.78 125.39 14.61 115.22 11.48 105.83 8.61 97.22 6.52 89.04 4.7 80.78 2.87 70.61 1.04 59.91 0 51.56 0 41.65 0 35.39 1.04 29.65 2.87 24.43 5.22 18.7 9.13 13.22 13.56 8.52 19.57 4.09 25.83 1.22 28.96 0 39.04 0 42.17 1.04 46.52 2.44 48.96 3.65 53.48 5.22 59.56 8.17 64.96 10.96 70.52 14.44 77.13 18.09 82.87 22.09 89.3 25.39 95.04 28 100.26 30.26 105.3 32.17 110.7 33.56 119.91 33.91 126.7 33.91 127.91 34.78 127.91 38.09 125.83 40 120.96 41.56 116.09 42.78 104.96 42.96 99.74 42.26 95.22 40.87 88.61 38.96 82.87 36.52 76.61 32.87 70.17 29.74 63.96 26.43 58.35 23.65 52.61 20.87 46.7 18.26 40.61 16.52 30.52 15.83 26.7 17.22 22.7 20.17 19.57 24.87 17.65 28.35 16.26 32.87 15.56 36.52 15.22 48.7 15.39 54.96 15.91 60.35 16.61 65.74 17.3 71.83 18 75.65 18.87 80 19.91 83.65 21.13 87.65 22.52 93.56 24.43 99.83 27.04 107.65 30.17 114.44 31.91 119.65 33.65 123.13 34.7 125.39 36.78 129.74 38.87 133.91 41.13 137.39 43.39 141.39 45.83 146.09 48.61 150.78 51.74 155.3 55.39 160.52 59.04 164.35 61.65 166.96 63.96 167.83 66.87 167.83 69.83 167.83 71.91 166.78 74.87 165.39 79.91 165.39 82.52 166.78 84.96 168.87 87.04 170.96 87.22 173.22 86.35 175.48 81.13 178.44 72.26 181.91 70.87 182.61 62.35 182.61 59.22 181.56 55.56 180.17 52.09 178.61 49.13 175.83 44.96 171.3 41.13 166.96 37.3 160.87 34 156 30 147.83"/></svg>