<svg width="61" height="53" viewBox="0 0 61 53" fill="none" xmlns="http://www.w3.org/2000/svg">
<path d="M44.6692 16.7107C43.8903 16.0336 42.9655 15.4965 41.9476 15.1301C40.9298 14.7636 39.8388 14.575 38.737 14.575C37.6352 14.575 36.5442 14.7636 35.5263 15.1301C34.5084 15.4965 33.5836 16.0336 32.8047 16.7107L31.1882 18.1152L29.5717 16.7107C27.9984 15.3437 25.8645 14.5757 23.6395 14.5757C21.4144 14.5757 19.2805 15.3437 17.7072 16.7107C16.1339 18.0777 15.25 19.9317 15.25 21.8649C15.25 23.7981 16.1339 25.6522 17.7072 27.0192L19.3237 28.4237L31.1882 38.7322L43.0527 28.4237L44.6692 27.0192C45.4485 26.3424 46.0667 25.5389 46.4884 24.6545C46.9102 23.7701 47.1273 22.8222 47.1273 21.8649C47.1273 20.9076 46.9102 19.9597 46.4884 19.0753C46.0667 18.191 45.4485 17.3874 44.6692 16.7107V16.7107Z" stroke="white" stroke-width="2" stroke-linecap="round" stroke-linejoin="round"/>
</svg>
