<svg width="71" height="56" viewBox="0 0 71 56" fill="none" xmlns="http://www.w3.org/2000/svg">
<path d="M26.625 42H21.3C20.3585 42 19.4555 41.705 18.7898 41.1799C18.124 40.6548 17.75 39.9426 17.75 39.2V29.4C17.75 28.6574 18.124 27.9452 18.7898 27.4201C19.4555 26.895 20.3585 26.6 21.3 26.6H26.625M39.05 23.8V18.2C39.05 17.0861 38.489 16.0178 37.4903 15.2302C36.4917 14.4425 35.1373 14 33.725 14L26.625 26.6V42H46.647C47.5031 42.0076 48.3339 41.771 48.9863 41.3336C49.6386 40.8962 50.0686 40.2877 50.197 39.62L52.6465 27.02C52.7237 26.6187 52.6894 26.209 52.5459 25.8192C52.4024 25.4293 52.1532 25.0688 51.8155 24.7625C51.4779 24.4562 51.0598 24.2115 50.5903 24.0453C50.1208 23.8791 49.6111 23.7954 49.0965 23.8H39.05Z" stroke="#FFF0F0" stroke-width="2" stroke-linecap="round" stroke-linejoin="round"/>
</svg>
